/* XPM */
static char * exit_xpm[] = {
"64 64 255 2",
"  	c #000000",
". 	c #030005",
"+ 	c #000200",
"@ 	c #000206",
"# 	c #010400",
"$ 	c #030602",
"% 	c #00070A",
"& 	c #02080C",
"* 	c #0B070D",
"= 	c #0E0705",
"- 	c #040A0D",
"; 	c #050B0E",
"> 	c #090C07",
", 	c #070C0F",
"' 	c #080E11",
") 	c #100D12",
"! 	c #0C0F0B",
"~ 	c #0B1012",
"{ 	c #0C1113",
"] 	c #131115",
"^ 	c #0E1315",
"/ 	c #101416",
"( 	c #141613",
"_ 	c #131618",
": 	c #1A181B",
"< 	c #1A1C19",
"[ 	c #1C1F21",
"} 	c #201E22",
"| 	c #1E201D",
"1 	c #1F2224",
"2 	c #1F2325",
"3 	c #232628",
"4 	c #26292B",
"5 	c #282C2E",
"6 	c #2A2C29",
"7 	c #2D2F2D",
"8 	c #312F32",
"9 	c #2E3133",
"0 	c #313330",
"a 	c #323638",
"b 	c #383937",
"c 	c #373B3D",
"d 	c #393B39",
"e 	c #393D3F",
"f 	c #3B3F41",
"g 	c #423F43",
"h 	c #3D4143",
"i 	c #3F413F",
"j 	c #414547",
"k 	c #474548",
"l 	c #454745",
"m 	c #44484A",
"n 	c #4A474B",
"o 	c #45494B",
"p 	c #474946",
"q 	c #474B4E",
"r 	c #4A4C49",
"s 	c #494D4F",
"t 	c #4F4D50",
"u 	c #4D4F4C",
"v 	c #4C5053",
"w 	c #524F53",
"x 	c #4E5254",
"y 	c #50524F",
"z 	c #525451",
"A 	c #535553",
"B 	c #565458",
"C 	c #545654",
"D 	c #53575A",
"E 	c #555755",
"F 	c #565A5C",
"G 	c #5A5C59",
"H 	c #5B5F62",
"I 	c #5D5F5C",
"J 	c #5F615E",
"K 	c #616360",
"L 	c #606467",
"M 	c #686569",
"N 	c #656764",
"O 	c #64696B",
"P 	c #6A686C",
"Q 	c #666A6D",
"R 	c #6A6C69",
"S 	c #6F6D71",
"T 	c #6B6F71",
"U 	c #6E706D",
"V 	c #6D7174",
"W 	c #6F7376",
"X 	c #727471",
"Y 	c #717578",
"Z 	c #767478",
"` 	c #73777A",
" .	c #757774",
"..	c #75797C",
"+.	c #777976",
"@.	c #777B7E",
"#.	c #797B78",
"$.	c #7C7A7E",
"%.	c #7C7E7B",
"&.	c #7B8082",
"*.	c #7E807D",
"=.	c #828481",
"-.	c #858387",
";.	c #818588",
">.	c #828689",
",.	c #858784",
"'.	c #89878B",
").	c #85898C",
"!.	c #888A87",
"~.	c #878B8E",
"{.	c #898B88",
"].	c #898E90",
"^.	c #8D8F8C",
"/.	c #918E92",
"(.	c #8E908D",
"_.	c #8C9193",
":.	c #90928F",
"<.	c #909497",
"[.	c #929491",
"}.	c #929699",
"|.	c #959794",
"1.	c #99969B",
"2.	c #979996",
"3.	c #999B98",
"4.	c #979C9E",
"5.	c #9B9E9A",
"6.	c #9B9FA1",
"7.	c #9DA09D",
"8.	c #9DA1A4",
"9.	c #9FA19E",
"0.	c #A4A1A6",
"a.	c #A1A3A0",
"b.	c #A0A5A7",
"c.	c #A3A5A2",
"d.	c #A4A6A3",
"e.	c #A8A5AA",
"f.	c #A3A7AA",
"g.	c #A6A8A5",
"h.	c #A5A9AC",
"i.	c #A6AAAD",
"j.	c #A8AAA7",
"k.	c #A9ABA8",
"l.	c #A8ACAF",
"m.	c #ABADAA",
"n.	c #AFACB0",
"o.	c #ACAEAB",
"p.	c #AAAFB1",
"q.	c #AEB1AD",
"r.	c #B3B0B4",
"s.	c #AEB2B5",
"t.	c #B0B2AF",
"u.	c #B2B4B1",
"v.	c #B0B5B7",
"w.	c #B4B6B3",
"x.	c #B8B5BA",
"y.	c #B2B7BA",
"z.	c #B5B7B4",
"A.	c #B4B9BB",
"B.	c #B7B9B6",
"C.	c #B6BABD",
"D.	c #B7BBBE",
"E.	c #B9BBB8",
"F.	c #B8BDBF",
"G.	c #BBBDBA",
"H.	c #BFBCC0",
"I.	c #BCBEBB",
"J.	c #BABFC1",
"K.	c #BDBFBC",
"L.	c #C2BFC3",
"M.	c #BCC1C3",
"N.	c #BEC1BD",
"O.	c #BFC3C6",
"P.	c #C1C3C0",
"Q.	c #C1C5C8",
"R.	c #C3C5C2",
"S.	c #C4C6C3",
"T.	c #C3C7CA",
"U.	c #C5C7C4",
"V.	c #C6C8C5",
"W.	c #C7C9C6",
"X.	c #C8CAC7",
"Y.	c #C6CBCD",
"Z.	c #C9CBC8",
"`.	c #CACCC9",
" +	c #C8CDCF",
".+	c #CFCCD1",
"++	c #C9CED1",
"@+	c #CBCECA",
"#+	c #CCCFCB",
"$+	c #CCD1D3",
"%+	c #CED1CD",
"&+	c #CDD2D5",
"*+	c #D0D2CF",
"=+	c #D1D3D0",
"-+	c #CFD4D6",
";+	c #D2D4D1",
">+	c #D3D5D2",
",+	c #D1D6D8",
"'+	c #D4D6D3",
")+	c #D8D5DA",
"!+	c #D5D7D4",
"~+	c #D3D8DA",
"{+	c #DAD7DB",
"]+	c #D4D9DB",
"^+	c #D6D9D5",
"/+	c #D7DAD6",
"(+	c #D8DBD7",
"_+	c #D7DCDF",
":+	c #D9DCD9",
"<+	c #DBDDDA",
"[+	c #D9DEE1",
"}+	c #DCDEDB",
"|+	c #DDDFDC",
"1+	c #DEE0DD",
"2+	c #DCE1E3",
"3+	c #DFE1DE",
"4+	c #E0E3DF",
"5+	c #DFE4E6",
"6+	c #E1E4E0",
"7+	c #E2E5E1",
"8+	c #E3E6E2",
"9+	c #E2E6E9",
"0+	c #E5E7E4",
"a+	c #E3E8EB",
"b+	c #E6E8E5",
"c+	c #E7E9E6",
"d+	c #E5EAED",
"e+	c #E8EAE7",
"f+	c #E9EBE8",
"g+	c #EDEAEE",
"h+	c #E7ECEE",
"i+	c #E8EDEF",
"j+	c #EAEDE9",
"k+	c #E9EEF1",
"l+	c #EBEEEA",
"m+	c #ECEFEB",
"n+	c #EBF0F3",
"o+	c #EDF0ED",
"p+	c #EFF1EE",
"q+	c #EDF2F4",
"r+	c #F0F2EF",
"s+	c #F1F3F0",
"t+	c #F2F4F1",
"u+	c #F0F5F7",
"v+	c #F3F6F2",
"w+	c #F2F7FA",
"x+	c #F4F7F3",
"y+	c #F5F8F4",
"z+	c #F6F9F6",
"A+	c #F8FAF7",
"B+	c #F9FBF8",
"C+	c #FAFCF9",
"D+	c #FBFDFA",
"E+	c #F9FEFF",
"F+	c #FCFFFB",
"*.}+B+F+y+}+}+p+y+8+3+}+7+F+F+l+}+}+B+F+y+}+}+m+F+F+4+}+6+F+F+m+}+}+B+F+y+}+}+p+F+F+4+}+8+F+F+j+S.}+B+F+y+}+}+m+F+F+6+}+7+F+F+m+",
"*+}+B+F+y+}+}+p+F+}+3+}+7+F+F+l+}+}+B+F+y+}+}+m+F+F+4+}+6+F+F+m+}+}+B+F+y+}+}+p+F+F+4+}+8+F+F+j+O.}+B+F+y+}+}+m+F+F+6+}+7+F+F+m+",
"m+m+m+m+m+m+m+m+m+!+m+m+m+m+m+m+m+m+m+m+m+m+m+m+m+m+m+m+m+m+m+m+m+m+m+m+m+l+m+m+m+m+m+m+m+m+l+B.8+m+m+m+m+m+m+m+m+m+m+m+m+m+m+m+",
"F+F+1+}+8+F+F+l+}+U.u+F+y+}+/+m+F+F+3+}+7+F+F+l+}+}+A+F+A+}+}+m+F+F+1+}+8+p+F+f+}+}+B+F+y+}+x.9+F+F+4+}+7+F+F+l+}+}+A+F+y+}+}+m+",
"F+F+1+|+0+F+F+l+|+_+K.F+y+2+@+m+F+F+3+|+7+F+F+l+|+|+A+F+9+}+|+m+F+F+3+|+8+'+F+j+|+|+B+F+y+|+D.q+F+F+4+|+7+F+F+l+|+}+A+F+y+}+|+m+",
"|+|+B+D+x+|+|+p+D+D+s.M.9+D+8+j+|+|+A+D+y+|+|+m+D+D+6+|+%+D+D+m+|+|+B+D+x+v.|+p+D+D+6+|+8+D+,+j+|+|+y+j+v+|+|+m+D+D+6+|+7+D+D+m+",
"}+}+B+F+y+}+}+p+F+F+1+ ._+F+e+c+}+}+B+F+y+}+}+m+F+F+4+}+S.F+F+m+}+}+B+F+y+L.}+r+F+F+4+}+8+F+R.h+}+(+A.g+y+}+}+m+F+F+4+}+7+F+F+m+",
"l+l+m+m+m+l+l+m+m+m+l+W.6.p+*+b+l+l+m+m+m+m+l+m+m+m+l+l+I.m+m+m+l+l+m+m+m+$+l+m+p+m+l+l+l+b+=.v.L.b.h+n+m+l+l+m+p+p+l+l+l+m+m+m+",
"F+F+1+}+8+F+F+l+}+}+B+f+^.[+F.m+F+F+3+}+7+F+F+l+}+<+A+F+f.}+}+m+F+F+3+}+8+W.D+j+}+}+B+F+t+^.,+p+F+B+V.X.7+F+F+l+}+}+A+F+y+}+}+m+",
"F+F+1+}+8+F+F+l+}+}+B+C+%.W. +m+F+F+3+}+7+F+F+l+}+!+A+m+}.}+}+m+F+F+1+}+7+{.F.i+}+}+B+F+B.*+}+p+F+F+4+$+4+F+F+l+}+}+A+F+y+}+}+m+",
"1+1+A+B+v+1+1+m+B+C+6+1+!+T Y.m+1+1+y+B+x+1+1+m+B+c+a.6.^+B+B+m+1+1+A+B+v+t.t {+B+B+7+X.A.B+B+j+1+1+y+B+x+1+1+m+B+C+7+1+8+B+B+m+",
"}+}+B+F+y+}+}+p+F+F+3+}+7+/+e $+}+}+B+F+y+}+}+m+F+D+$.}+6+F+F+m+}+}+B+F+y+[+g.:.F+h+E.Y 1+F+F+j+}+}+B+F+y+}+}+m+F+F+4+}+7+F+F+m+",
"f+f+r+s+p+f+f+m+s+s+f+f+j+w. +6.e+f+p+s+p+f+f+m+s+e+^.f+j+s+s+m+f+f+r+s+p+f+g.Q.].: 6.W.j+s+s+m+f+f+r+s+p+f+f+m+s+s+j+f+j+s+r+m+",
"F+F+1+}+8+F+F+j+}+}+c+(+;+J.2+l.s+F+3+}+7+F+F+l+}+(+a.F+A+}+}+m+F+F+1+}+7+y+A ) P v.B+F+y+}+}+p+F+F+4+}+7+F+F+l+}+}+A+F+y+}+}+m+",
"F+F+1+|+8+F+F+j+}+Q.f+F+y+|+}+4+F.F+3+}+7+D+t+m+}+-+).F+A+}+}+m+F+F+1+}+7+a.L v.}+}+B+F+y+}+}+p+F+F+4+}+7+F+F+l+}+*+4+B+y+}+}+m+",
"4+4+y+B+t+4+4+b+@+s+8+4+b+B+B+m+1.)+y+B+v+4+4+m+B+v+x '+0+B+B+m+4+4+w+B+u.1 Q n+B+B+0+4+b+B+B+j+1+4+y+B+v+4+4+m+b+!+9+4+0+B+B+m+",
"}+}+B+F+y+}+/+1+F+F+3+}+7+F+F+m+n.S v+F+y+}+}+m+F+e+4 t.6+F+F+m+}+(+A+y+8 s X.r+F+F+4+}+3+F+F+j+}+}+B+F+y+}+{+(+e+F+6+}+7+F+F+m+",
"c+c+s+t+r+c+c+m+t+t+c+c+f+t+t+m+h+` *.c+q+c+c+m+s+v.( s.e+t+t+m+c+7+3+^+% %+c+m+t+t+e+c+c+t+t+l+c+c+s+t+<+>+1+m+t+t+e+c+f+t+t+m+",
"F+F+1+}+8+F+F+j+}+}+B+F+y+}+}+m+F+X.* h O.F+F+l+u.c + O 8+}+}+m+u+@+C.|.` v+D+f+}+}+B+F+y+}+}+p+F+F+4+I.(+F+F+l+}+}+A+F+y+}+}+m+",
"F+F+1+}+8+F+F+l+}+}+B+F+y+}+}+m+F+D+b.H O c+v+I.b + + + W k.W.(+I.O ( + l.r+F+j+}+}+B+F+y+}+}+p+F+F+O.-+7+F+F+l+}+}+A+F+y+}+}+m+",
"7+7+x+y+s+7+7+m+y+y+0+7+c+y+y+m+6+7+s+$+u b c + + + + + + - * @ . + + + A.7+7+m+y+y+b+7+c+y+y+l+7+<+M.y+t+7+7+m+y+y+b+7+c+y+y+m+",
"}+}+B+F+y+}+}+p+F+F+3+}+7+F+F+l+}+}+B+F+6.+ + + + - + + + + + + + + + _ (.;+}+r+F+F+3+}+8+F+F+j+P.).9.T.u+}+}+m+F+F+6+}+7+F+F+m+",
"b+0+t+v+s+b+b+m+v+v+c+b+e+v+v+m+b+b+s+v+/.+ + + , , + + + + + + + + , , ^.W.1+m+v+v+c+b+e+v+x+E.h.9+t+2+F.*+$+Y.X.$+V. +#+i+x+m+",
"F+F+1+}+8+F+F+l+}+}+B+F+y+}+}+m+F+F+3+S.3 + + { , + + + + + + + + + @ + + e.6+f+}+}+B+F+y+<+<.P.F+F+4+}+7+F+F+l+}+}+u+v+y+;+P.,+",
"D+F+1+}+8+F+F+l+}+X.2+m+m+^+,+j+F+F+X.h + + ) , + + + + + + + + + + + + + &.f+f+<+(+B+F+v+{.D.p+F+F+4+}+7+F+F+l+}+}+A+F+y+}+}+m+",
"$+ +(+|+=+;+J.v.r.*+>+W.W.|+1+X 9.t.0 + + + @ + + + + + + + + + + + + + + + 9.i+x+x+c+U.{.>+x+l+0+0+t+x+s+0+0+m+x+x+c+0+c+x+x+m+",
"}+}+B+F+y+}+}+p+B+W.]+}+7+F+F+8+u.l + + + + + + + + + + + + ~ + + + + + + + + }.b+'+Y.F i.F+F+f+}+}+B+F+y+}+}+m+F+F+6+}+7+F+F+m+",
"8+8+v+y+s+8+8+m+p+y+/+<+c+y+y+l+8+C.+ + + + + + + + + + + ^ % + + + + + + + + , & + i + 5.y+y+j+8+8+v+y+t+8+8+m+y+y+b+8+c+y+y+m+",
"F+F+1+}+8+D+F+j+}+}+B+e+m+_+}+m+C+1+9 + + + + + + + + + ^ & + + + + + + + + + + + + + + p >+}+m+y+y+]+.+,+F+F+l+}+}+A+F+y+}+}+m+",
"F+F+1+}+8+v+F+j+}+}+B+F+>+(+}+m+B+t+v + + + + + + + + { $ + + + + + + + + + + + + + + + + y o.g.E.b+%+G.7+F+F+l+}+}+A+F+A+}+}+m+",
"c+c+s+t+r+c+c+m+t+t+c+c+@+o.l+m+_+_.j + + + + + + + + + + + + + + + + + + + + + + + + + | p 5._+b+c+s+c+c+c+c+m+t+t+e+c+e+t+t+m+",
"}+}+B+F+y+}+}+p+F+F+>+z.{.U  .D y $ + + + + + + + + + + + + + + + + + ^ + + + + + + + + x '+F+j+}+}+B+F+8+}+}+m+F+F+6+}+7+F+F+m+",
"4+4+y+B+t+4+4+2+<+!+#+<+b+A+A+^+9.&.q + + + + + + + + + + + + + + % ^ + + + + + + + + + h b+B+l+4+4+y+B+c+^+4+m+A+A+0+4+b+B+B+m+",
"A+b+X.R.!+B+s+b+}+}+B+F+y+}+}+m+F+D+!.} + + % { + + + + + + + + & ] + + + + + + + + + + Q 2.X.p+F+F+4+}+7+R.D+l+}+}+A+F+y+}+}+m+",
"y+F+3+}+(+}+F+j+}+}+B+F+y+}+}+m+F+F+u.9 + - { + + + + + + + + + , @ + + + + + + + + + + + ` ^+p+m+0+/+}+7+X.:.E.k.2.(.X %.4.d.1+",
"e+e+r+s+p+e+e+m+s+s+f+e+f+s+s+l+e+!+3+y - / + + + + + + + + + + + + + + + + + + @ + + + + 4 W d... .B Y -.[.o h H +.2.P.7+s+^+z.",
"}+}+B+F+y+}+}+p+F+F+4+}+7+F+F+l+}+<+c+_ , + + + + + + + + + + + + + + + + + + , ] + + + + ( J.X.0.#.'.%+#+m..+m+F+F+4+}+7+F+F+m+",
"1+1+y+B+v+1+1+m+B+B+6+1+0+B+B+l+1+W.I + + + + + + + + + @ + + + + + + + + + , { + + + + + J 1+f+1+}+r+B+x+1+1+m+B+B+7+}+8+B+B+l+",
"F+F+1+}+8+F+F+l+}+}+B+F+y+<+P.B.a.f + + + + + + + + + , { + + + + + + + + , { + + + + + + |.=+l+F+F+4+}+7+F+F+l+}+;+}+D+y+}+}+m+",
"F+F+1+}+8+F+F+l+}+}+B+y+*+4.t.,+i+s+k.^.+ + + + + + , ) + + + + + + + + + $ + + + + + + + A V j+F+F+4+}+7+F+F+l+}+C.A+F+y+}+}+m+",
"j+j+m+p+m+j+j+m+p+@+b.c.V.p+q+i+l+l+m+m+N + + + + ~ ) + + + + + + + + + + + + + + + + U O N L *.=+b+m+p+m+j+l+m+*+9+l+j+l+p+p+m+",
"}+}+B+F+y+}+}+p+e+V.3+}+7+F+F+l+}+}+y+F+p.+ + + + - + + + + + + + + + + + + + + + + =.R H.#+E.k.,.[.y+F+y+}+}+j+F.F+6+}+7+F+F+m+",
"|+|+B+D+x+|+|+5+K.C+4+|+8+D+D+l+<+|+x+D+Q.+ + + + + + + + + + + + > + + + + + + + n H @+8+D+D+j+|+t.*.m+x+^+Y._.i+D+6+|+7+D+D+m+",
"F+F+1+}+8+r+1+T.[+}+B+F+y+|+}+m+F+F+3+(+5.+ + + + + + + + + + @ { = + + 5 z [ + + i /+F+y+}+}+p+F+F+@+~.=.@.I p t.}+A+F+y+}+}+m+",
"F+F+1+}+4+B+E+i+}+}+B+F+y+}+}+m+F+F+3+X.q & + + + + + + + + + / - + x /.#...D > o T B+F+y+}+}+j+F+F+4+X.(+c+c+j+P.f.h+r+t+}+}+m+",
"m+m+m+m+m+m+m+m+m+m+m+m+m+m+m+m+m+m+(+W.U & + + + G 2.y r #+g.M + ! *+m+m+m+K.g f b.m+m+m+m+m+m+m+m+m+m+@+b+m+m+m+1+;+m+m+m+m+m+",
"}+}+B+F+y+}+}+p+F+F+3+}+7+F+F+l+}+}+B+x+;.< :.g.a.(+3+;+>+F+F+7+j ).B+F+y+}+^+9.6 R 3+}+8+F+F+j+}+}+B+F+j+W.}+m+F+F+X.=+7+F+F+m+",
"}+}+B+F+x+}+}+p+F+F+3+}+7+F+F+l+}+}+B+R.+ j.}+m+F+F+4+}+6+F+F+m+p >.B+F+y+}+|+b+u.k d.(+8+F+F+j+}+}+B+F+y+(+<+m+F+F+4+X.4+F+F+m+",
"D+D+3+|+0+D+D+l+|+|+A+D+x+|+|+m+D+D+W.7 [.C+D+l+|+|+A+D+y+|+|+j+a }.3+|+8+D+D+e+!+#.,.y+y+|+|+p+D+D+6+(+8+D+D+l+|+|+A+D+x+|+|+m+",
"F+F+1+}+8+F+F+j+}+}+B+F+y+}+}+m+F+V.w x *+F+F+l+}+}+A+F+A+}+}+<+1 1+1+}+8+F+F+j+}+=+w V.y+}+}+p+F+F+4+}+7+t+F+l+}+}+A+F+y+}+}+m+",
"p+p+j+j+l+p+p+m+j+j+m+p+m+j+j+m+W.G A 6.9.>+p+m+j+l+m+p+m+j+j+K.s b+j+l+l+p+p+l+j+j+B.Z l+j+j+m+p+p+l+j+l+p+p+m+l+l+m+p+m+j+j+m+",
"}+}+B+F+y+}+}+p+F+F+3+}+7+F+F+b+x 8.y+F+y+#+G.m+F+F+4+}+6+F+F+2.T }+B+F+y+}+}+r+F+F+>+^.(.D+F+j+}+}+B+F+y+}+}+m+F+F+6+}+7+F+F+m+",
"}+}+B+F+y+}+}+p+F+F+3+}+7+F+7+I (.}+B+F+y+}+^+E.x+F+4+}+6+F+y+d v.}+B+F+y+}+}+r+F+c+Y.~+~.8+F+j+}+}+B+F+y+|+}+m+F+F+6+}+7+F+F+m+",
"B+C+4+1+0+B+B+l+1+1+y+B+x+G.7 0 i+B+6+1+8+B+B+j+m.^+y+A+(+6.z C v+B+4+1+0+B+B+j+1+$+y+B+/+6.1+m+B+B+7+1+0+B+t+l+1+1+y+B+x+1+1+m+",
"F+F+1+}+8+F+F+j+}+}+B+F+b+[ + K.F+F+3+}+7+F+F+m+}+K.7+c+j+(+E.+.C+F+1+}+8+F+F+f+}+<+B+F+y+V E.p+F+F+4+}+7+F+8+l+}+}+f+t+y+}+}+m+",
"s+s+f+f+j+s+s+l+e+f+r+s+3.%.U.m+s+s+f+f+j+s+s+m+f+f+r+s+r+e+B.V.s+s+f+f+j+s+s+l+f+e+r+s+p+_+E !.:.X.e+(+K.X.c.M.$+2+p+2+ +}+f+m+",
"}+}+B+F+y+}+}+p+F+F+3+j.A.F+F+l+}+}+B+F+y+}+}+m+F+F+4+}+6+F+9.2+}+}+B+F+y+}+}+r+F+F+4+}+7+D+l.j+z.m G %.*+(+}+m+F+F+6+|+7+a+A+m+",
"}+}+B+F+y+}+|+p+F+x+:.P.8+F+F+l+}+|+B+F+y+|+}+m+F+F+4+|+6+F+m.m+|+}+B+F+y+}+}+r+F+F+4+|+8+F+F.j+|+X.K ,+y+}+|+m+F+F+5+|+7+F+9+m+",
"B+B+7+4+b+B+B+l+#+Y 4+B+v+4+4+m+B+B+8+4+b+B+B+l+4+4+x+B+x+4+k.m+B+B+7+4+b+B+B+j+4+4+y+B+v+Q.K.n+B+B+1.X.b+B+B+l+4+4+x+B+v+4+3+i+",
"F+F+1+}+8+F+F+W.L %+B+F+y+}+}+m+F+F+3+}+7+F+F+l+}+}+A+F+A+@+f.m+F+F+1+}+7+F+F+j+}+}+B+F+|+U.}+p+F+F+G.U.7+F+F+l+}+}+A+F+y+}+}+m+",
"t+t+c+c+f+s+X.+.1+c+s+s+r+c+c+m+t+t+c+c+e+t+t+l+c+c+s+t+r+O.h+m+t+t+e+c+e+t+t+m+c+c+s+s+'+h+c+m+t+t+^+@+e+t+t+m+c+c+s+t+s+c+c+m+",
"}+}+B+F+y+'+].l+F+F+3+}+7+F+F+l+}+}+B+F+y+}+}+m+F+F+4+}+S.y+F+m+}+}+B+F+y+}+}+r+F+F+4+;+(+F+F+j+}+}+p+/+y+}+}+m+F+F+4+}+7+F+F+m+",
"}+}+B+F+y+A.(+p+F+F+3+}+7+F+F+l+}+}+B+F+y+}+}+m+F+F+4+>+M.F+F+m+}+}+B+F+y+}+}+r+F+F+4+S.8+F+F+j+}+}+B+E.y+}+}+m+F+F+6+}+7+F+F+m+",
"y+y+0+7+b+>+y+l+8+7+v+y+s+8+8+m+y+y+0+8+c+y+y+l+7+8+v+Y.s+8+8+m+y+y+0+7+c+y+y+j+8+7+v+s+s+8+8+m+y+y+b+v.h+y+y+l+7+7+v+y+t+8+8+m+"};
