/* XPM */
static char * exit_xpm[] = {
"64 64 82 1",
" 	c #8DE9F8",
".	c #B7EFF8",
"+	c #C4F2F9",
"@	c #ACECF7",
"#	c #93E9F8",
"$	c #B0ECF8",
"%	c #B3EEF8",
"&	c #A6EBF7",
"*	c #BEF0F9",
"=	c #A8ECF7",
"-	c #A4EBF7",
";	c #96EAF7",
">	c #92E9F8",
",	c #A2EAF7",
"'	c #9DEAF7",
")	c #BAEFF8",
"!	c #95E9F7",
"~	c #81D0DD",
"{	c #5B8C95",
"]	c #9AEAF7",
"^	c #1A181B",
"/	c #8BE5F4",
"(	c #100D12",
"_	c #85D9E7",
":	c #B9EEF9",
"<	c #1F2224",
"[	c #26292B",
"}	c #312F32",
"|	c #7DCAD7",
"1	c #141613",
"2	c #00070A",
"3	c #0B070D",
"4	c #659FA9",
"5	c #558189",
"6	c #000200",
"7	c #558087",
"8	c #83D6E3",
"9	c #040A0D",
"0	c #000206",
"a	c #030005",
"b	c #131618",
"c	c #070C0F",
"d	c #232628",
"e	c #0C1113",
"f	c #3D5456",
"g	c #76BDC9",
"h	c #0B1012",
"i	c #0E1315",
"j	c #02080C",
"k	c #6AA7B1",
"l	c #2E3133",
"m	c #7AC4D0",
"n	c #82D3E0",
"o	c #030602",
"p	c #88DEEC",
"q	c #6FAFBA",
"r	c #1E201D",
"s	c #7AC4D1",
"t	c #201E22",
"u	c #131115",
"v	c #101416",
"w	c #8AE3F1",
"x	c #76BECA",
"y	c #60969F",
"z	c #090C07",
"A	c #78BDCA",
"B	c #0E0705",
"C	c #282C2E",
"D	c #1C1F21",
"E	c #CBF3FB",
"F	c #7FCDDA",
"G	c #0C0F0B",
"H	c #679EA9",
"I	c #1A1C19",
"J	c #2A2C29",
"K	c #74B6C2",
"L	c #2D2F2D",
"M	c #425E64",
"N	c #84D6E3",
"O	c #5B8C94",
"P	c #8CE8F7",
"Q	c #75BAC6",
"  .+@  #@    ++   .+@   ++   ++   .+@  #++   ++   .+@   ++   ++ ",
"  .+@  #+    ++   .+@   ++   ++   .+@  #++   ++   .+@   ++   ++ ",
"                                                                ",
"++   ++   $+@   ++   ++   %+%   ++   #+   .+@   ++   ++   %+@   ",
"++   ++    +@   ++   ++   %+    ++    +   .+@  &++   ++   %+@   ",
"  .*=  #**   *    %*@   **   **   .*=  #**   *    @ -   **   ** ",
"  .+@  #++   +    .+@   ++   ++   .+@  ;++   + >   >@   ++   ++ ",
"             #                          #         >,    ##      ",
"++   ++   .     ++   ++   %+    ++    *   .+'  #+.   ++   %+@   ",
"++   ++   .)    ++   ++   %     ++     !  .+   #++   ++   %+@   ",
"  %.-   .)        @.=   .    ..   %.- ~ ..   ..   @.=   .)   .. ",
"  .+@  #++    {   .+@   +*   ++   .+@   +>   ++   .+@   ++   ++ ",
"  ;]#   ]]        #]#   ]    ]]   ;]#    ^   ]]   ;]#   ]]   ]; ",
"++   ++         ]+   ++    +%   ++   @/(  .+@  #++   ++   %+@   ",
"++   ++    +@    +   *'    +%   ++        .+@  #++   ++    .@   ",
"  @.'    ]   ..   @.-   .-_  ..   :. < ,..   ..   @.-        .. ",
"  .+@   ++   ++   -+@   + [  ++   %@}| ;++   ++   .+@    +   ++ ",
"  ]';   ''   '' >   &   ] 1  ''     2   ''   ''   ]'    ''   '' ",
"++   ++   .+@   + 34 ++  56     $    -*   .+@  #++   ++   %+@   ",
"++   ++   .+@   +*    - 7666      16 ;+   .+@  #++   ++   %+@   ",
"  =@]   @@   @@   ] 875666666930a666    @@   @@    @'   @@   @@ ",
"  .+@  #++   ++   .+ 66669666666666b   ;++   ++     $   ++   ++ ",
"  '-]   --   --   ]- 666cc66666666cc    --   -=   '          != ",
"++   ++   .+@   ++  d66ec666666666066     .+@   ++   ++   $-@   ",
"*+   ++         ++ 466(c6666666666666     .+-  #++   ++   %+@   ",
"                  f6660666666666666666 !==    =   '=]   ==   == ",
"  .+@  #.    ++  g666666666666h66666666      ++   .+@   ++   ++ ",
"  -@]   #@   @@   66666666666i266666666cj6k6 @@   -@'   @@   @@ ",
"++   *+   .     ) l666666666ij66666666666666m   @@   ++   %+@   ",
"++   -+   .+    .'n66666666eo6666666666666666p       ++   %+%   ",
"  ]';   ''        q6666666666666666666666666rm    ]     ''   '' ",
"  .+@  #++     /po66666666666666666i66666666_ +   .+    ++   ++ ",
"  @.'        %%   s666666666666662i6666666664 .   @.    %%   .. ",
"%    .]   .+@   +* t662e66666666ju6666666666   #++    *   %+@   ",
"@+    +   .+@   ++ l69e666666666c066666666666  #                ",
"  ;]#   ]]   ]]    p9v66666666666666666606666[    w   x4     ]  ",
"  .+@  #++   ++    bc666666666666666666cu66661          ++   ++ ",
"  @.-   ..   ..    6666666660666666666ce66666     ;.=   ..   .. ",
"++   ++   .+@    y666666666ce66666666ce666666   ++   ++    *@   ",
"++   ++   .@    !]  666666c(666666666o6666666/  ++   ++   %+@   ",
"   #    #    #&!     6666h(6666666666666666        #         ## ",
"  .+@  #     ++   @+ 666696666666666666666        @+@    +   ++ ",
"  .*=    )   **   =* 666666666666z6666666A   **     =   !*   ** ",
"++   ;    .+@   ++   66666666660eB66CwD66k +@  #++     m  %+@   ",
"++   .E!  .+@   ++  sj666666666v96_   /zx .+@   ++        >;'   ",
"                     j666  pF   6G     Hy                       ",
"  .+@  #++   ++   .= I       ++ q .+@   J    ++   .+    ++   ++ ",
"  .+=  #++   ++   . 6   ++   ++ m .+@    K   ++   .+@   ++   ++ ",
"**   **   %*=   ** L )*   %*@   M    **    @@  #**   **   %*=   ",
"++   ++   .+@   + N_ ++   %+%   <    ++   N @  #++   '+   %+@   ",
"##   ##    #      /   #    #    |    ##         ##   ##    #    ",
"  .+@  #++   ++ _ @+@   ++   ++   .+@  ;++   *+   .+@   ++   ++ ",
"  .+@  #++   +    .+@   =+   +@O  .+@  ;+     +   .+@   ++   ++ ",
".)   ..   @.= Lf!.   ..   @%  wP-.   ..   @.    ..   .'   @.=   ",
"++   ++   .+ D6 ++   ++         )+   ++   .+@  #++   +     '@   ",
"]]   ]]   ;]    ]]   ]]   ;];   ]]   ]]   ;]#             #     ",
"  .+@  #++   ++   .+@   ++   +    .+@  ;++   *   Q      ++    % ",
"  .+@  #+=   ++   .+@   ++   +    .+@  ;++   +      @   ++   +  ",
"..   ..    .-   ..   ..   =.=   ..   ..   @.-  ,..   ..   =.-  !",
"++   ++   .+@   ++   ++   %+%   ++   ++   .+   #++   ++   %+@   ",
"''   ]    ]];   ''   ''   ]'; > ''   ''   ]] >  ''   ''   ]']   ",
"  .+@   ++   ++   .+@   ++   @+   .+@  ;++   ++   # @   ++   ++ ",
"  .+@  #++   ++   .+@   ++   ++   .+@  ;++   ++   . @   ++   ++ ",
"@@    @   -@]   @@   @@   - ]   @@   @@   -]]   @@  >@@   -@'   "};
