/* XPM */
static char * money_xpm[] = {
"64 64 239 2",
"  	c #8DE9F8",
". 	c #2E3E12",
"+ 	c #504D19",
"@ 	c #9A7E2D",
"# 	c #AC8832",
"$ 	c #B99336",
"% 	c #D1A240",
"& 	c #DDAD43",
"* 	c #D5A644",
"= 	c #AE8A34",
"- 	c #6A5E1F",
"; 	c #8D7228",
"> 	c #C69F3A",
", 	c #AF8B35",
"' 	c #E9B745",
") 	c #F8BF4F",
"! 	c #F1BE4C",
"~ 	c #FDC24B",
"{ 	c #BC9639",
"] 	c #A28534",
"^ 	c #766426",
"/ 	c #E7B64C",
"( 	c #7E6B26",
"_ 	c #7A6823",
": 	c #DBAB40",
"< 	c #594F16",
"[ 	c #A18433",
"} 	c #B28D37",
"| 	c #9D8130",
"1 	c #F4C14F",
"2 	c #B6913B",
"3 	c #94792F",
"4 	c #6E571B",
"5 	c #7F6121",
"6 	c #8E6823",
"7 	c #7A621F",
"8 	c #A48736",
"9 	c #E3B248",
"0 	c #9C6F25",
"a 	c #A0782C",
"b 	c #725B1F",
"c 	c #A3752B",
"d 	c #D59431",
"e 	c #AC7D2C",
"f 	c #8A6520",
"g 	c #A07228",
"h 	c #987124",
"i 	c #B9822C",
"j 	c #BF8731",
"k 	c #C38A2C",
"l 	c #554C1A",
"m 	c #A67725",
"n 	c #DA9936",
"o 	c #AF802E",
"p 	c #EEA33B",
"q 	c #EAA038",
"r 	c #C18933",
"s 	c #816E29",
"t 	c #BC852F",
"u 	c #85661E",
"v 	c #C58C2E",
"w 	c #C68D2F",
"x 	c #7B5E1D",
"y 	c #63581F",
"z 	c #91772D",
"A 	c #B67F29",
"B 	c #6F591D",
"C 	c #364016",
"D 	c #886F2C",
"E 	c #997D2C",
"F 	c #4C4A15",
"G 	c #3A5123",
"H 	c #424616",
"I 	c #EFBD4B",
"J 	c #B37D2E",
"K 	c #746224",
"L 	c #A97A28",
"M 	c #DC9A37",
"N 	c #68581A",
"O 	c #344418",
"P 	c #517435",
"Q 	c #648D45",
"R 	c #4F6B2E",
"S 	c #48652F",
"T 	c #47642E",
"U 	c #3A501C",
"V 	c #93732B",
"W 	c #DF9C3A",
"X 	c #46622C",
"Y 	c #5E7C43",
"Z 	c #6F9251",
"` 	c #8DBD69",
" .	c #81AB60",
"..	c #5E8141",
"+.	c #4B6831",
"@.	c #4E692C",
"#.	c #344B1D",
"$.	c #64541D",
"%.	c #D8A946",
"&.	c #ECB947",
"*.	c #8A7026",
"=.	c #9B7327",
"-.	c #C88F31",
";.	c #405C26",
">.	c #79A258",
",.	c #9ACA76",
"'.	c #739C53",
").	c #4E7132",
"!.	c #607C3E",
"~.	c #77A057",
"{.	c #678A4A",
"].	c #597C3D",
"^.	c #4D6F31",
"/.	c #45612B",
"(.	c #37481B",
"_.	c #E5B44A",
":.	c #907029",
"<.	c #D19136",
"[.	c #62521B",
"}.	c #7F6724",
"|.	c #44602A",
"1.	c #4D6A33",
"2.	c #89B368",
"3.	c #729654",
"4.	c #4E7031",
"5.	c #90C06C",
"6.	c #526F37",
"7.	c #6D9C4B",
"8.	c #C08E35",
"9.	c #876820",
"0.	c #BF993B",
"a.	c #926C27",
"b.	c #55723B",
"c.	c #7FA85E",
"d.	c #506D35",
"e.	c #5B7840",
"f.	c #94C571",
"g.	c #618A42",
"h.	c #60561D",
"i.	c #A48132",
"j.	c #956E21",
"k.	c #585419",
"l.	c #96C773",
"m.	c #435924",
"n.	c #638148",
"o.	c #6B8F4E",
"p.	c #92C36F",
"q.	c #415722",
"r.	c #CD8E32",
"s.	c #4D551E",
"t.	c #415E28",
"u.	c #56793A",
"v.	c #6F9747",
"w.	c #6B9A49",
"x.	c #547738",
"y.	c #8DB564",
"z.	c #486326",
"A.	c #8A6A22",
"B.	c #7C6421",
"C.	c #846B28",
"D.	c #4B5A27",
"E.	c #97C874",
"F.	c #699249",
"G.	c #5D7E38",
"H.	c #9F8332",
"I.	c #86B066",
"J.	c #5E803A",
"K.	c #5E873F",
"L.	c #546F32",
"M.	c #567F38",
"N.	c #527B34",
"O.	c #665B22",
"P.	c #A88536",
"Q.	c #5D531A",
"R.	c #577A3B",
"S.	c #679148",
"T.	c #4A6730",
"U.	c #507334",
"V.	c #58813A",
"W.	c #4A6C2E",
"X.	c #324216",
"Y.	c #404A19",
"Z.	c #698C4B",
"`.	c #5B843D",
" +	c #3D5A24",
".+	c #3E5420",
"++	c #474517",
"@+	c #826423",
"#+	c #7D601F",
"$+	c #83AD63",
"%+	c #405622",
"&+	c #6C6128",
"*+	c #486B2C",
"=+	c #D89633",
"-+	c #618444",
";+	c #759857",
">+	c #638646",
",+	c #7BA45A",
"'+	c #547D36",
")+	c #826926",
"!+	c #606728",
"~+	c #627F46",
"{+	c #C39D3F",
"]+	c #709B58",
"^+	c #496428",
"/+	c #526027",
"(+	c #577235",
"_+	c #46692B",
":+	c #646528",
"<+	c #364D1F",
"[+	c #60823C",
"}+	c #8BB56A",
"|+	c #706A28",
"1+	c #967526",
"2+	c #384E1A",
"3+	c #A67D29",
"4+	c #4F7233",
"5+	c #9E7C2D",
"6+	c #8F752B",
"7+	c #C8A13B",
"8+	c #4B6E2F",
"9+	c #4A6629",
"0+	c #587933",
"a+	c #705F21",
"b+	c #567832",
"c+	c #C99C41",
"d+	c #BE9237",
"e+	c #C19B3D",
"f+	c #5E4F18",
"g+	c #557E37",
"h+	c #A28031",
"i+	c #304115",
"j+	c #E29F34",
"k+	c #B28229",
"l+	c #CEA641",
"m+	c #597A34",
"n+	c #6C5B1E",
"o+	c #F8C44A",
"p+	c #745D21",
"                                                                                                                                ",
"                                                                                                                                ",
"                                                                                                                                ",
"                                                                                                                                ",
"                                                                                                                                ",
"                                                                                                                                ",
"                                                                                                                                ",
"                                        . .                                                                                     ",
"                                  + @ # # $ % & * = -                                                                           ",
"                                ; > , * ' ) ! ' ~ { { ]                                                                         ",
"                              ^ ) ) ~ ~ ~ ~ ~ ~ ~ ~ / > (                                                                       ",
"                              _ > : ~ ~ ~ ~ ~ ~ ~ ~ : > -                                                                       ",
"                              < [ } | > ) ~ 1 % 2 3 2 ; 4                                                                       ",
"                ( ;           5 6 7 8 { & 9 & 2 ] 3 4 0 a ^                                                                     ",
"              3 $ % b         5 c d e f g h h c i j d k h %                                                                     ",
"            ( $ ' 3 5 6       l m n j o p p p p p q r m s *                                                                     ",
"            : ' ~ @ g t         . u i v p p p p q w x y { ;                                                                     ",
"          @ / ~ & z j A       . ^ B 5 C x x x 5 D E ] @ F j     . G .                                                           ",
"        H } I ~ $ ; e J     K % } x j i A 4 x x x 5 L c d M N O P Q R S T U . .                                                 ",
"        [ $ ~ ~ 3 c d 6     & ! ~ V j j W j p p p p p w M c U X Y Z `  .Z ..+.@.@.T #..                                         ",
"      . } ' ~ : 3 d p $.  . %.{ ) &.*.=.W -.p p p p p w x ;.X >.,.,.,.,.,.'.).!.~.{.].^.S /.(..                                 ",
"      3 { ~ ~ _.:.p <.. < [.}.{ E 2 / % ; x 6 g =.5 < . |.1.2.,.,.,.,.,.,.3.4.{.,.,.,.5. .6.7.R .                               ",
"      = / ~ I % i p c =.8.9.e [.z 0.% 9 9 > = ( l a.$.T b.5.,.,.,.,.c.d.e.>.f.,.,.,.,.,.,.3.g.;.U                               ",
"    h.&.~ ~ { *.q q i.1 ~ { j j J 0 c g j.c e -.L k.S Y l.2.Z 6.m.;.1.6.n.e.o.,.,.,.,.,.p.S q.^..                               ",
"    @ ' ~ > } i p i _.~ ~ 9 c r.t j p p p p p d s.t.Z 5.!.u.Q Q v.7.7.w.Q x.6.y.,.,.,.,...T 4.z.(.                              ",
"    3 & &.# A.p q B.! ~ ~ ~ * C.L w p p p p j D./.c.E.u.v.@.X ].F.F.x.4.G.7.w.+.` ,.,.>.R t.^.x..                               ",
"    # I H.@ g p e [ } { ) ~ ! E h.K $.x x 4 /.+.2.,.I.g.7.F.P J.R ].F.7.F.K.7.w.Z ,.` L.q.M.N.q.                                ",
"    } @ $ g d A < j.O.P.$ > > } 3 Q.a.e [.S e.5.,.,.p.x.7.7.g.K.w.7.F.Q R.|.F.S.~.l.b.T.U.V.W.W.X.                              ",
"    & { 6 L d a.L d d L j j j k n d k Y.T.Z.l.,.,.,.,.c.L.F.7.7.7.7.Q J.K.w.`.!.l.o.x.|.V.N. +V..+                              ",
"    ++@+c W #+l 6 d <.j p p p p p k #.|.~.,.,.,.,.,.,.I.'.{.x.].V.J.V.R.@.+.~.E.$+P %+M.x.&+] *+.+                              ",
"      =.t u . c [.l e j W p p =+A U X 2.,.,.,.,.,.,.,.,.$+-+o.;+>+o.,+I.5.,.,.5.L.@.P '+)+2 $ % F                               ",
"        [.    m i e l . ^ s _ . ;.1.5.,.,.,.,.,.,.,.,.,.,.,.5. .,+y.,.,.,.,.E.!.G./.W.!+L H.> { }                               ",
"              h j d d e v o Y.S ~+l.,.,.,.,.,.,.,.5.Z 3.l.,.,.,.,.,.,.,.,.,.;+`.%+).*+( d @ {+~ 9 H.                            ",
"              l j d d j n O.|.;+,.,.,.,.,.,.,.,.,...w.F.]+,.,.,.,.,.,.,.,.2.x.@.^+ +'+7 r.a { ~ ~ I K                           ",
"              a.a.d d =./+Q 1.E.,.,.,.,.,.,.,.,.,.]++.L.c.,.,.,.,.,.,.,.f.(+G.@ [ t._+:+r.#+[ ) ~ > @ % {+{ ^                   ",
"              n 9.4 0 |.w.7.K.Y ]+$+5.,.,.,.,.,.,.,.,.,.,.,.,.,.,.,.,.,.-+K.$.% 1 {+/+_+-.n 3 * ~ * # $ % 0.~ % (               ",
"              t d J 7 <+|.).J.Q [+V.P T e.Z.,+}+l.,.,.,.,.,.,.,.,.,.,.,+K.|+a., _.% } O v p :.2 ~ } 1+2 ~ ~ ~ {+% H.            ",
"              6 d j a V.N.U._+|. +2+#.;.^.^.^.).@.b.-+]+$+5.,.,.,.2.,+(+`.a.A @ % ~ > [ a.p i { ~ 3+5 , > ~ ~ ~ &.0.E           ",
"              #+n j L '+V.V.V.V.V.V.V.N.P W./..+2+/.4+U.x.4++.b.>+S J.Q q.:.i 5+2 ~ ~ $ }.<.k 6+~ e i A.P.7+~ ~ ~ 1 { E         ",
"                a.j t t.4.N.V.V.V.V.V.V.V.V.V.V.V.N.4.z..+<+T R.].w.w.|.P B W 4 } ) ~ I s | > [ 3 )+W A C.E > ~ ~ ~ ~ 2 3       ",
"                    [.8+/.2+(.;.9+4+N.V.)..+U |.8+N.V.V.V.V.0+W.|..+q.^. +|.=.n 8 & ~ ~ ^ / ' $ , # =.i M C.% ~ ~ ~ ~ ) > a+    ",
"                    . V.V.V.M.P *+|.U 2+|.x.V.b+*+|.q. +W.'+V.V.V.V.|.8+W.P k A 9.! ~ 9 #+2 _.~ ) { { 5+W W 7 * ~ ! ~ ~ ) >     ",
"                    . V.V.V.V.V.V.V.V.V.N.0+V.V.V.V.V.V.b+U.V.V.V.V.|.;.V.^+C.v d $ ~ { o 3 i.~ ~ ~ _.c+d+W q c E > # } {+9     ",
"                    . W.b+M.V.V.V.V.V.V.V.V.V.V.V.V.V.V.V.V.V.V.V.V.|.N.x.@._+d p =.I d+i f } e+~ ~ ~ &.e+} W p d f+E 2 > 2     ",
"                      .+q..+W.V.'+x.g+V.V.V.V.V.8+z.t..+|.z.W.U.b+M.|.M.;.V.P a.p n i.^ e n N > / ~ ~ ~ ~ ! h+q q A e e x B     ",
"                      W.V.V.V.V.0+^+%+U q.^+4+g+V.V.V.V.N.P W.X  +U i+z.P V.;.9+d j+6 ( u A n O.&.~ ~ ~ ~ 1 } 9.<.n o r k+6     ",
"                      W.V.V.V.V.V.V.V.V.N.W.X U U ^+P V.V.V.V.V.V.V.).t.V.8+4.8+y [ = 2 [ e <.r )+& ! ! ~ ~ l+} ++h c t J       ",
"                      _+V.V.V.V.V.V.V.V.V.V.V.V.M.U.9+|.8+V.V.V.x.|.U 0+M. +/.2 { } > 9 9 3 i p q A.2 @ e+) ~ c+      .         ",
"                      /.V.V.V.V.V.m+|.|.z.W.b+g+V.V.V.V.V.V.V.V.V.N. +V.^+4.{ 1 1 ~ ~ ~ ~ ! *.W p p J }.= ] # * 6+              ",
"                      X.q.;.W.N.V.V.V.M.P _+|.U 2+q.^+^.0+V.V.V.V.V.|.N.|.P > } 1 ~ ~ ~ ~ ~ &.V d p p n g O.H.E .               ",
"                      (.^+^.4+N.V.V.V.V.V.V.V.V.V.N.4.^+ +#..+z.W.x.|.;.'+W.n+{ 3 $ &.~ ~ o+9 > ++i p p M <.m a.                ",
"                          . . #.t._+x.V.V.V.V.g+@.^.b+V.V.V.'+4+_+t.2+9+V.U 0 x ; { * ~ ~ * 8 # ] H f <.-.n =+u                 ",
"                                  . . i+%+^+4+g+M.U.9+ +q.t.9+U.g+V.x.W.^.. c j i c b x f+F p+=.c k w . [.x x                   ",
"                                            . . 2+|.W.0+V.'+4+^+q..+ +*+U   u k j d d p p p p p j q m                           ",
"                                                    . . X.%+_+U.M.V.).U       [.m n n p p p p p v @+                            ",
"                                                              . . 2+ +.           ++5 c c c j.$..                               ",
"                                                                                                                                ",
"                                                                                                                                ",
"                                                                                                                                ",
"                                                                                                                                ",
"                                                                                                                                ",
"                                                                                                                                ",
"                                                                                                                                ",
"                                                                                                                                "};
