/* XPM */
static char * police_xpm[] = {
"64 64 472 2",
"  	c #8DE9F8",
". 	c #9DEAF6",
"+ 	c #C8EEE7",
"@ 	c #E6EECD",
"# 	c #EEF3E5",
"$ 	c #B1EDF8",
"% 	c #8EE9F8",
"& 	c #B8EEF8",
"* 	c #E4EDC5",
"= 	c #F3E04A",
"- 	c #FEE11D",
"; 	c #FEE11E",
"> 	c #FDE224",
", 	c #EEE59E",
"' 	c #CAF0F6",
") 	c #94EAF8",
"! 	c #B8E4EB",
"~ 	c #5EC6D0",
"{ 	c #83C2A8",
"] 	c #5FBFB5",
"^ 	c #7CC0AB",
"/ 	c #85C3A7",
"( 	c #63BCB2",
"_ 	c #49BDBD",
": 	c #0DBBC7",
"< 	c #75CFD9",
"[ 	c #A1E9F5",
"} 	c #8FE9F8",
"| 	c #CAEEF3",
"1 	c #6DC9D1",
"2 	c #02BAC7",
"3 	c #01BAC7",
"4 	c #00BAC6",
"5 	c #01BAC6",
"6 	c #01BAC5",
"7 	c #00BAC7",
"8 	c #08BBC7",
"9 	c #91DFE9",
"0 	c #C2ECF3",
"a 	c #3DC0CC",
"b 	c #00BBC7",
"c 	c #01BAC8",
"d 	c #80D9E4",
"e 	c #C6EFF6",
"f 	c #47C1CC",
"g 	c #00BBC8",
"h 	c #02BBC7",
"i 	c #00B5C1",
"j 	c #36B6B9",
"k 	c #42B7B7",
"l 	c #18B4BC",
"m 	c #02B8C4",
"n 	c #01BBC8",
"o 	c #90D9E3",
"p 	c #91E9F8",
"q 	c #AEEDF8",
"r 	c #9ED7DE",
"s 	c #02BBC8",
"t 	c #4ABAB9",
"u 	c #A0C69A",
"v 	c #CED274",
"w 	c #DCCF5D",
"x 	c #F5DF6C",
"y 	c #FDE583",
"z 	c #FEE588",
"A 	c #FCE47F",
"B 	c #F4E273",
"C 	c #E1D86B",
"D 	c #C4CE7A",
"E 	c #99C49B",
"F 	c #47B9B9",
"G 	c #0ABBC8",
"H 	c #BBE6ED",
"I 	c #E0F3F6",
"J 	c #22BDC9",
"K 	c #05B8C4",
"L 	c #88C1A4",
"M 	c #D4D472",
"N 	c #E7D77C",
"O 	c #B3B497",
"P 	c #9EACB6",
"Q 	c #AEBDD0",
"R 	c #D6DBE0",
"S 	c #F0E1CA",
"T 	c #EDE4D4",
"U 	c #BBC6D3",
"V 	c #A1B1C5",
"W 	c #A5ACB6",
"X 	c #CBC6B6",
"Y 	c #FCE8AB",
"Z 	c #FBE689",
"` 	c #DBD573",
" .	c #B9D0AB",
"..	c #C2EEF6",
"+.	c #93EAF8",
"@.	c #CFE9EB",
"#.	c #91C4A0",
"$.	c #E3DA79",
"%.	c #FDE7A4",
"&.	c #E4DAC3",
"*.	c #3D7DB2",
"=.	c #217BB6",
"-.	c #257EB9",
";.	c #247DB8",
">.	c #1D77B2",
",.	c #A3B2C1",
"'.	c #487EAE",
").	c #207AB5",
"!.	c #257EB7",
"~.	c #227DB8",
"{.	c #2079B4",
"].	c #96A8B8",
"^.	c #FDEBCA",
"/.	c #FAEACB",
"(.	c #E7D8A9",
"_.	c #E1E2E2",
":.	c #98EAF8",
"<.	c #92E9F8",
"[.	c #CEF1F8",
"}.	c #E3E8EA",
"|.	c #D5EBF0",
"1.	c #DFE7CF",
"2.	c #E4D39C",
"3.	c #E4D6BE",
"4.	c #E8DAC0",
"5.	c #9DB5C9",
"6.	c #6BA4D1",
"7.	c #6CA6D3",
"8.	c #76A3C8",
"9.	c #81B1D9",
"0.	c #6FA6D2",
"a.	c #5794C4",
"b.	c #68A1CF",
"c.	c #74A8D3",
"d.	c #83B2DA",
"e.	c #6BA1CB",
"f.	c #69A3D1",
"g.	c #6AA3D0",
"h.	c #CAC7BD",
"i.	c #E8D8BB",
"j.	c #FBECD0",
"k.	c #DEDEDC",
"l.	c #B0EDF8",
"m.	c #E2ECF0",
"n.	c #A7A6AC",
"o.	c #47435A",
"p.	c #B3CED6",
"q.	c #D6F0F0",
"r.	c #FEECCC",
"s.	c #FEEBCB",
"t.	c #FEEBCA",
"u.	c #938F89",
"v.	c #737C88",
"w.	c #838F9B",
"x.	c #3D1D18",
"y.	c #696C73",
"z.	c #858F9A",
"A.	c #B7B1A6",
"B.	c #828086",
"C.	c #524E52",
"D.	c #58555B",
"E.	c #8B98A7",
"F.	c #6C717A",
"G.	c #D5C6AE",
"H.	c #FEEBC9",
"I.	c #FDECCD",
"J.	c #D9DEDE",
"K.	c #96EAF8",
"L.	c #D0EFF6",
"M.	c #BBBAC0",
"N.	c #4F4C61",
"O.	c #72727E",
"P.	c #A1CDD6",
"Q.	c #90E9F8",
"R.	c #C1EEF5",
"S.	c #FEEAC9",
"T.	c #BBA68F",
"U.	c #562B20",
"V.	c #52291F",
"W.	c #663323",
"X.	c #5A2D21",
"Y.	c #795F53",
"Z.	c #F6E4C6",
"`.	c #C8B69D",
" +	c #5D2E21",
".+	c #613022",
"++	c #4C251E",
"@+	c #6A4538",
"#+	c #F3E1C3",
"$+	c #F8E7CC",
"%+	c #CEE2E7",
"&+	c #B9EEF8",
"*+	c #CED5DA",
"=+	c #6F6D7B",
"-+	c #5F5C6C",
";+	c #9DACB3",
">+	c #A2E6F2",
",+	c #AFECF6",
"'+	c #B3EBED",
")+	c #B2EDF5",
"!+	c #B2EDF8",
"~+	c #C3EFF8",
"{+	c #FDEDD1",
"]+	c #FFEBCA",
"^+	c #FAE7C7",
"/+	c #A38C78",
"(+	c #683424",
"_+	c #6D3524",
":+	c #8F7160",
"<+	c #EEDBBE",
"[+	c #FEECCB",
"}+	c #C5AF96",
"|+	c #6D3D2E",
"1+	c #6C3524",
"2+	c #714B3C",
"3+	c #DBC8AC",
"4+	c #E0D5C2",
"5+	c #ADEBF7",
"6+	c #9DEBF8",
"7+	c #CEE6EB",
"8+	c #8C8B94",
"9+	c #555365",
"0+	c #8D8C93",
"a+	c #B8DAE1",
"b+	c #F4E783",
"c+	c #FFE11D",
"d+	c #F3DE70",
"e+	c #AEB3D2",
"f+	c #949BC6",
"g+	c #C5BFC1",
"h+	c #EDDBBE",
"i+	c #EBDABC",
"j+	c #F5E3C3",
"k+	c #E9D7BA",
"l+	c #F8E4C4",
"m+	c #FAE9CA",
"n+	c #C8D0CF",
"o+	c #B7EEF8",
"p+	c #C0ECF5",
"q+	c #A7ACB3",
"r+	c #4A475C",
"s+	c #7C7B84",
"t+	c #BFC7C9",
"u+	c #B3EBF6",
"v+	c #F9E251",
"w+	c #FDE12A",
"x+	c #5F6CAC",
"y+	c #5E6CB2",
"z+	c #6975B3",
"A+	c #E7DAC7",
"B+	c #F4E5C6",
"C+	c #FFEBC9",
"D+	c #FEEBC8",
"E+	c #EBDCBE",
"F+	c #DFD4C0",
"G+	c #E2D6C0",
"H+	c #FAE9C8",
"I+	c #FFEAC9",
"J+	c #EEE0C5",
"K+	c #C0BAC0",
"L+	c #B8BBD1",
"M+	c #BBBABF",
"N+	c #504D61",
"O+	c #6D6B78",
"P+	c #B4B4B6",
"Q+	c #D5E9EE",
"R+	c #FAE24E",
"S+	c #FEE220",
"T+	c #5F6BA8",
"U+	c #5E6DB2",
"V+	c #5E6DB3",
"W+	c #7D83B5",
"X+	c #E9DDC7",
"Y+	c #EEDFC4",
"Z+	c #FEECCA",
"`+	c #A7A3A4",
" @	c #C0BDB9",
".@	c #B8B3AF",
"+@	c #B2ADAA",
"@@	c #F9E7C8",
"#@	c #F5E4C5",
"$@	c #ECDEC1",
"%@	c #EDDFAD",
"&@	c #F1D943",
"*@	c #E4CD34",
"=@	c #B2A03A",
"-@	c #B4A550",
";@	c #919099",
">@	c #C4EFF7",
",@	c #F5E8AF",
"'@	c #FFE11E",
")@	c #FEE21F",
"!@	c #616EA9",
"~@	c #5D6CB2",
"{@	c #5D6BB2",
"]@	c #747BB2",
"^@	c #D9CFC0",
"/@	c #EDDFC2",
"(@	c #EFE0C4",
"_@	c #FCEBCB",
":@	c #F6E6C8",
"<@	c #EEDDBE",
"[@	c #EFDFC1",
"}@	c #F4E4C7",
"|@	c #F6E6C7",
"1@	c #EEE0C3",
"2@	c #F1E2C6",
"3@	c #BCB7C0",
"4@	c #E4CF56",
"5@	c #E4D378",
"6@	c #97969F",
"7@	c #CDE2E7",
"8@	c #EAF3F4",
"9@	c #F9E471",
"0@	c #E9D356",
"a@	c #5E6DB1",
"b@	c #5F6EB3",
"c@	c #5F6DB2",
"d@	c #5E6AB2",
"e@	c #5E6BB2",
"f@	c #5965A6",
"g@	c #999AB8",
"h@	c #DBD0C5",
"i@	c #EEE1C4",
"j@	c #F1E1C5",
"k@	c #F1E3C7",
"l@	c #ECDCBE",
"m@	c #F1E2C7",
"n@	c #EBDDC5",
"o@	c #C9C0C0",
"p@	c #7A82B5",
"q@	c #5965A7",
"r@	c #CCBB71",
"s@	c #AEACA7",
"t@	c #D2D2D3",
"u@	c #B8B7BA",
"v@	c #C9F0F8",
"w@	c #EDECE6",
"x@	c #B7B8C3",
"y@	c #5B68AB",
"z@	c #5A66A8",
"A@	c #5B66A7",
"B@	c #5F6AA4",
"C@	c #9293B4",
"D@	c #ABA9C0",
"E@	c #B0ACB8",
"F@	c #A19FB9",
"G@	c #8489B5",
"H@	c #7A7594",
"I@	c #8C818D",
"J@	c #8C808B",
"K@	c #8A8290",
"L@	c #93939B",
"M@	c #D9C763",
"N@	c #6370B2",
"O@	c #C5E4EB",
"P@	c #E5F5F9",
"Q@	c #CCCFE0",
"R@	c #5E6EB2",
"S@	c #5C6AAF",
"T@	c #5D6AAF",
"U@	c #5D6CB3",
"V@	c #B19A83",
"W@	c #C2A46C",
"X@	c #C8A96D",
"Y@	c #C2A974",
"Z@	c #5D6CB1",
"`@	c #999698",
" #	c #797FA6",
".#	c #5D6BB3",
"+#	c #606DB2",
"@#	c #BEDFEA",
"##	c #ACECF8",
"$#	c #DEE0E9",
"%#	c #5E6BAF",
"&#	c #5C6CB1",
"*#	c #8984A0",
"=#	c #B49978",
"-#	c #7577AB",
";#	c #5E6EB3",
">#	c #B3D8E4",
",#	c #D7EFF6",
"'#	c #6370B4",
")#	c #5E6CB0",
"!#	c #5862A3",
"~#	c #5F6BB1",
"{#	c #D2AE53",
"]#	c #C3A560",
"^#	c #B1966F",
"/#	c #5E6CB3",
"(#	c #5E6BB0",
"_#	c #AED5E0",
":#	c #A1EBF8",
"<#	c #959DC4",
"[#	c #5E6CB1",
"}#	c #5966A9",
"|#	c #C6A86B",
"1#	c #D9B543",
"2#	c #AD9986",
"3#	c #5D6DB1",
"4#	c #4E568E",
"5#	c #A9D2DC",
"6#	c #B9DCE4",
"7#	c #4D548A",
"8#	c #5C69AF",
"9#	c #5662A3",
"0#	c #5E6AAE",
"a#	c #606AA4",
"b#	c #636589",
"c#	c #515684",
"d#	c #4C5289",
"e#	c #4A5187",
"f#	c #484C80",
"g#	c #403F69",
"h#	c #35304D",
"i#	c #B1DAE3",
"j#	c #B4EDF7",
"k#	c #957574",
"l#	c #794950",
"m#	c #71567C",
"n#	c #695F93",
"o#	c #6766A0",
"p#	c #6366A4",
"q#	c #6267A5",
"r#	c #6266A5",
"s#	c #6366A3",
"t#	c #6565A1",
"u#	c #6666A0",
"v#	c #66639C",
"w#	c #6A5E8E",
"x#	c #755473",
"y#	c #764446",
"z#	c #744343",
"A#	c #734142",
"B#	c #734043",
"C#	c #734041",
"D#	c #734445",
"E#	c #9F989D",
"F#	c #767481",
"G#	c #B8E2EB",
"H#	c #A4EBF8",
"I#	c #A4999D",
"J#	c #63414F",
"K#	c #5D4252",
"L#	c #553E50",
"M#	c #4C3B4F",
"N#	c #43384E",
"O#	c #413850",
"P#	c #4A3B51",
"Q#	c #533F55",
"R#	c #604353",
"S#	c #6D474F",
"T#	c #664451",
"U#	c #604857",
"V#	c #615362",
"W#	c #635767",
"X#	c #625666",
"Y#	c #635566",
"Z#	c #604E5D",
"`#	c #5D4150",
" $	c #7F656C",
".$	c #D9D9D9",
"+$	c #D2E1E4",
"@$	c #94E9F8",
"#$	c #BADCE3",
"$$	c #BADCE2",
"%$	c #BBDCE3",
"&$	c #BCDDE3",
"*$	c #BBDDE3",
"=$	c #BCDDE4",
"-$	c #BEDEE5",
";$	c #C4E5EB",
"                                                                                                                                ",
"                                                                                                                                ",
"                                                                                                                                ",
"                                                                                                                                ",
"                                                                                                                                ",
"                                                                                                                                ",
"                                                                                                                                ",
"                                                                                                                                ",
"                                                                                                                                ",
"                                                                                                                                ",
"                                                                                                                                ",
"                                                                                                                                ",
"                                                                                                                                ",
"                                                                                                                                ",
"                                                                                                                                ",
"                                                                                                                                ",
"                                                                                                                                ",
"                                                                                                                                ",
"                                                    . + @ # $                                                                   ",
"                                              % & * = - ; > , ' )                                                               ",
"                                          % & ! ~ { ] ^ / ( _ : < [                                                             ",
"                                        } | 1 2 3 4 5 6 4 3 7 4 3 8 9                                                           ",
"                                      % 0 a 5 4 7 7 b 3 5 7 5 c 7 c 5 d %                                                       ",
"                                      e f 7 b 7 3 g h i j k l m n 7 4 3 o p                                                     ",
"                                    q r 5 3 s t u v w x y z A B C D E F G H                                                     ",
"                                  } I J K L M N O P Q R S T U V W X Y Z `  ...                                                  ",
"                                  +.@.#.$.%.&.*.=.-.;.>.,.'.).!.~.{.].^./.(._.:.            <.[.}.|.                            ",
"                                    1.2.3.4.5.6.7.8.9.0.a.b.c.d.e.f.g.h.i.j.k.p           l.m.n.o.p.                            ",
"                                    q.r.s.t.u.v.w.x.y.z.A.B.z.C.D.E.F.G.H.I.J.        K.L.M.N.O.P.Q.                            ",
"                                    R.t.S.S.T.U.V.W.X.Y.Z.`.U. +.+++@+#+H.$+%+      &+*+=+-+;+>+                                ",
"                            ,+'+)+!+~+{+]+]+^+/+(+_+:+<+]+[+}+|+1+2+3+t.S.4+5+  6+7+8+9+0+a+)                                   ",
"                            b+c+d+e+f+g+H.]+t.H.h+i+[+t.s.t.t.j+k+l+t.t.m+n+o+p+q+r+s+t+u+                                      ",
"                            v+c+w+x+y+z+A+B+C+C+C+t.D+E+F+G+H+t.I+H.t.J+K+L+M+N+O+P+Q+6+                                        ",
"                            R+c+S+T+U+V+W+X+Y+t.S.t.Z+`+ @.@+@@@S.#@$@%@&@*@=@-@;@>@                                            ",
"                            ,@'@)@!@U+~@{@]@^@/@(@_@H.:@<@[@}@|@1@2@3@4@c+c+'@5@6@7@+.                                          ",
"                            8@9@0@a@b@c@d@e@f@g@h@i@j@k@l@l@m@n@o@p@q@r@'@c+c+s@t@u@v@                                          ",
"                            & w@x@y+U+~@{@{@y@z@A@B@C@D@E@F@G@H@I@J@K@L@; S+M@N@O@                                              ",
"                              P@Q@U+V+{@U+U+U+V+U+V+R@U+S@T@U@V@W@X@Y@Z@`@ #.#+#@#                                              ",
"                              ##$#U+y+e@Z@Z@Z@Z@y+~@Z@U+U+%#{@&#*#=#-#{@+#;#~@a@>#                                              ",
"                                ,#'#~@y+~@~@Z@y+c@U+U+U+)#!#{@~#{#]#^#/#U+Z@Z@(#_#                                              ",
"                                :#<#y+/#{@/#U+U+U+[#c@y+U+}#/#y+|#1#2#~@c@U+3#4#5#                                              ",
"                                  6#7#8#{@~@{@/#y+c@y+U+9#0#{@{@a#b#c#d#e#f#g#h#i#                                              ",
"                                  j#k#l#m#n#o#p#q#r#s#t#u#v#w#x#y#z#A#B#C#D#E#F#G#                                              ",
"                                  H#I#J#K#L#M#N#O#P#Q#R#S#T#U#V#W#X#Y#Z#`# $.$+$@$                                              ",
"                                  p #$$$%$%$&$%$%$%$%$*$&$%$$$=$=$=$=$-$&$#$;$6+                                                ",
"                                                                                                                                ",
"                                                                                                                                ",
"                                                                                                                                ",
"                                                                                                                                ",
"                                                                                                                                ",
"                                                                                                                                ",
"                                                                                                                                ",
"                                                                                                                                ",
"                                                                                                                                ",
"                                                                                                                                ",
"                                                                                                                                ",
"                                                                                                                                ",
"                                                                                                                                ",
"                                                                                                                                ",
"                                                                                                                                ",
"                                                                                                                                ",
"                                                                                                                                ",
"                                                                                                                                ",
"                                                                                                                                "};
