/* XPM */
static char * Robber_beg_xpm[] = {
"64 64 256 2",
"  	c None",
". 	c #0C0F0B",
"+ 	c #121412",
"@ 	c #171312",
"# 	c #1A1615",
"$ 	c #1B1817",
"% 	c #181A18",
"& 	c #1D1A19",
"* 	c #2D1813",
"= 	c #1B1D1A",
"- 	c #201C1B",
"; 	c #1F1D20",
"> 	c #221D18",
", 	c #1D1F1D",
"' 	c #231F1E",
") 	c #281E1A",
"! 	c #1D2123",
"~ 	c #1F211E",
"{ 	c #262221",
"] 	c #222421",
"^ 	c #31221F",
"/ 	c #292524",
"( 	c #2E2420",
"_ 	c #252725",
": 	c #471F17",
"< 	c #282A27",
"[ 	c #2D2A29",
"} 	c #502313",
"| 	c #352A27",
"1 	c #2C2E2B",
"2 	c #352E24",
"3 	c #51261C",
"4 	c #482B23",
"5 	c #353130",
"6 	c #313330",
"7 	c #532C20",
"8 	c #493327",
"9 	c #363835",
"0 	c #672B1E",
"a 	c #3B3736",
"b 	c #393B38",
"c 	c #633222",
"d 	c #423E3D",
"e 	c #3E403D",
"f 	c #593E2F",
"g 	c #474341",
"h 	c #6D3A2A",
"i 	c #454644",
"j 	c #5C480A",
"k 	c #4C4847",
"l 	c #893924",
"m 	c #6F412E",
"n 	c #624631",
"o 	c #6E452F",
"p 	c #4C4E4B",
"q 	c #524E4C",
"r 	c #7D4532",
"s 	c #644F1A",
"t 	c #665114",
"u 	c #575251",
"v 	c #3D6214",
"w 	c #545653",
"x 	c #715416",
"y 	c #834C36",
"z 	c #6B5347",
"A 	c #68572A",
"B 	c #79503F",
"C 	c #804F39",
"D 	c #984931",
"E 	c #904D35",
"F 	c #5E5A58",
"G 	c #5B5D5A",
"H 	c #74594E",
"I 	c #8C5440",
"J 	c #3D7021",
"K 	c #86583D",
"L 	c #6B5E5A",
"M 	c #64605F",
"N 	c #B44B35",
"O 	c #4E6B34",
"P 	c #41721B",
"Q 	c #616360",
"R 	c #407413",
"S 	c #AF4F36",
"T 	c #4B7128",
"U 	c #A45538",
"V 	c #696463",
"W 	c #4D731E",
"X 	c #7C634C",
"Y 	c #9D5B35",
"Z 	c #995E41",
"` 	c #4D791B",
" .	c #A45C3C",
"..	c #696B68",
"+.	c #796A43",
"@.	c #896450",
"#.	c #6F6A69",
"$.	c #5F7625",
"%.	c #6C722D",
"&.	c #A26041",
"*.	c #477F27",
"=.	c #C8553F",
"-.	c #926549",
";.	c #458121",
">.	c #B05E3D",
",.	c #BD5B3C",
"'.	c #C65933",
").	c #A5624E",
"!.	c #C75A34",
"~.	c #956754",
"{.	c #A76438",
"].	c #6F716F",
"^.	c #75706F",
"/.	c #CB5B48",
"(.	c #C65F35",
"_.	c #707B2D",
":.	c #8A7055",
"<.	c #607E4C",
"[.	c #A16C49",
"}.	c #7D7C31",
"|.	c #9E6F52",
"1.	c #C56542",
"2.	c #7C7877",
"3.	c #C9644B",
"4.	c #8C793B",
"5.	c #787B78",
"6.	c #8E7A3B",
"7.	c #887A58",
"8.	c #C26A45",
"9.	c #807C63",
"0.	c #BE6C44",
"a.	c #A47451",
"b.	c #957766",
"c.	c #9F7467",
"d.	c #BE6D4B",
"e.	c #A67641",
"f.	c #827D7C",
"g.	c #88813B",
"h.	c #7B8637",
"i.	c #B6724C",
"j.	c #718661",
"k.	c #7E807D",
"l.	c #AC7652",
"m.	c #8B7F68",
"n.	c #778668",
"o.	c #AE765F",
"p.	c #8E8164",
"q.	c #D06F4D",
"r.	c #B57753",
"s.	c #878281",
"t.	c #A1803E",
"u.	c #C17552",
"v.	c #CA754D",
"w.	c #A7814E",
"x.	c #C17A4D",
"y.	c #C6794E",
"z.	c #8C8786",
"A.	c #878986",
"B.	c #C97B4A",
"C.	c #8B8D5A",
"D.	c #8F8C60",
"E.	c #BA814E",
"F.	c #C17F5F",
"G.	c #B8835D",
"H.	c #CA8254",
"I.	c #B6876E",
"J.	c #948F8E",
"K.	c #AA8F4A",
"L.	c #C68372",
"M.	c #AE8E58",
"N.	c #849973",
"O.	c #A0916E",
"P.	c #919390",
"Q.	c #CA8857",
"R.	c #9A938C",
"S.	c #B58D76",
"T.	c #CA895E",
"U.	c #C78970",
"V.	c #9D9781",
"W.	c #979996",
"X.	c #C98E61",
"Y.	c #CA8F5B",
"Z.	c #9D9897",
"`.	c #A6978C",
" +	c #C98F6C",
".+	c #CA945E",
"++	c #C8956A",
"@+	c #C69576",
"#+	c #A29D9C",
"$+	c #CB9666",
"%+	c #9DA09C",
"&+	c #A99E89",
"*+	c #D39663",
"=+	c #C89A67",
"-+	c #AD9F9A",
";+	c #C7998C",
">+	c #A1A4A1",
",+	c #C59C87",
"'+	c #A8A3A2",
")+	c #BC9F90",
"!+	c #CDA16D",
"~+	c #D49F6E",
"{+	c #ACA7A6",
"]+	c #D4A07B",
"^+	c #A0AE96",
"/+	c #BAA791",
"(+	c #A8ABA7",
"_+	c #B2AA97",
":+	c #BCA987",
"<+	c #CEA778",
"[+	c #AEB0AD",
"}+	c #D1AC88",
"|+	c #B6B1B0",
"1+	c #B2B4A5",
"2+	c #B2B4B1",
"3+	c #B3B9A2",
"4+	c #BBB7A3",
"5+	c #C0B7AA",
"6+	c #B8BAB7",
"7+	c #BEB9B7",
"8+	c #BDC0B0",
"9+	c #BDBFBC",
"0+	c #C3BEBD",
"a+	c #D8BFB0",
"b+	c #C2C5C1",
"c+	c #CCC5B1",
"d+	c #D7C5AB",
"e+	c #CDC8C6",
"f+	c #C8CAC6",
"g+	c #CECABB",
"h+	c #DBC8B7",
"i+	c #CFD2CE",
"j+	c #E3D0BF",
"k+	c #DCD4CD",
"l+	c #D8D6C7",
"m+	c #E4D4C8",
"n+	c #DBD8CF",
"o+	c #D8DAD7",
"p+	c #E5E0DE",
"q+	c #E9E2D4",
"r+	c #E1E4E0",
"s+	c #E6E4DB",
"t+	c #EFECE3",
"u+	c #EAEDEA",
"v+	c #F1ECEA",
"w+	c #F6ECDF",
"x+	c #F3F1E1",
"y+	c #F1F3F0",
"z+	c #F8F3F1",
"A+	c #FCF4ED",
"B+	c #F6F6ED",
"C+	c #F6F8F5",
"D+	c #FBFBF2",
"E+	c #FFFAF8",
"F+	c #FAFCF9",
"G+	c #FFFFFF",
"                                                                                                                                ",
"                                                              9+%+A.A.[+r+                                  s+_+&+4+g+t+        ",
"                                                          {+b = = = ] ] _ 2.r+                                                  ",
"                                                      r+..= = = = = ] ] ] ] i o+                                                ",
"                g+j.N.^+8+n+                        o+i - ~ ] ] _ _ < < ] ] ] #.                                                ",
"          8+N.T v W ` *.P O 3+                    f+b < 6 6 6 6 6 6 b e e 9 1 < (+                                              ",
"      s+n.J J 6.e.E.E.=+$.;.*.3+                b+_ ] < 5 6 6 6 6 6 9 g k d 9 < _ A.                                            ",
"    s+<.v T %.E.8.v.H.=+_.R ;.*.^+              #.- ] < < < < < < < 1 b g d 6 < ] ~ 7+                                          ",
"  t+<.J v g.6.H.v.1.Y.M.$.h.;.T 3+              w = ~ ~ ' ' ) ^ 8 n X :.:.X 8 ( ' ' P.                                          ",
"  1+J P $.}.e.v.v.8.Y.w.}.K.D.l+                5.2 8 n K -.[.G.|.-.G.<+<+<+|.c : * f.                                          ",
"    i+C.g.%.e.x.H.H.Y.E.t.:+                    k+~.B K r.H.H.Q.r. +++!+<+<+G.r  .[.`.                                          ",
"      w+r.{.Y x.y.Q.Q.Y.d+                        o.&.[.d.,.3.v.r.K a.=+<+<+$+ .!.(.]+                                          ",
"        h+u.0.v.u.Q.Y.Y.j+                        S.r y S /./.q.H.Q.Y.=+<+<+=+Y.1.'.Q.q+                                        ",
"          t+,+u.y.y.H.T.q+                      ;+F. .>.S =./.3.y.Q.Y.$+<+<+!+.+B.v.@+                                          ",
"              o.8.0.>.c 9+                      L.F.&. .U S N S &.I y a.!+<+!+.+B.d.-+                                          ",
"            7+4 o f | 5 6+                      m+U.C 3 3 } 3 c r I r r =+!+!+.+Q.x.m+                                          ",
"              ^.M ^.A.(+f+                        q+B m D E I I ~.~.r h X..+.+Y.H. +w+                                          ",
"              J.Z.>+(+(+9+                          b.c  .).I.S.S.@.c c r.i.y.0.i.j+                                            ",
"              z.P.Z.#+P.V                           g+z : 3 3 3 : : : 0 D U ).)+s+                                              ",
"              M [ 1 < ] < i+                          k+R.V z : } 0 l U >.0.h+                                                  ",
"              >+# & ] 6 ^.6+p+                        r+o+9+R.7 h E &.i.G.l./+o+                                                ",
"                ^.V f.Z.(+[+q (+              r+f+%+F a 2 [ - - > ) ) ( ( ( ( F ^.#.'+                                          ",
"                e+f.A.P.Z.M ] k.|+M J.7+s.g q f.F g q u G M M M F F w q k d 5 [ _ ] 9 Z.p+                                      ",
"                  >+F k < ' 5 '+7+V 5 |+[+q < F z.#+(+2+7+7+0+0+b+b+b+b+b+b+9+6+[+%+z.#.W.i 5.f+                                ",
"                    |+d - g z.'+%+b < '+6+../ V f.z.P.W.#+>+'+{+{+[+2+6+9+b+e+e+e+b+b+b+k.1 ..6+f+i+p+            j+ +++d+x+    ",
"                      r+(+z.s.A.q - e %+W.i . & = ] _ 1 6 6 6 1 1 6 6 b e k u M #.5.A.P.z.G 6+7+2._ G [+      j+]+H.~+T.*+}+    ",
"                            f+P...F s.z.^.5 5 b e g k k k k i e d b b e e g k k g e 9 1 1 A.(+5.< s.7+%+..s.)+8.Y.~+H.~+B.X.w+  ",
"                                          o+J.J.Z.'+[+2+7+6+7+6+6+6+6+6+6+2+[+[+>+#+P.k.].^.J.< F (+A.6 A.z.c.N 1.X.T.H.H. +    ",
"                                          f+Z.P.#+'+[+2+6+7+7+7+0+9+b+b+b+b+b+b+b+b+b+b+0+#+V ~ ^.J.a V f...L >.,.0.y.y.0.a+    ",
"                                        r+f.9 < 6 e p G ..].5.k.z.J.J.%+'+(+[+2+6+9+9+7+6+%+u #.#.f.{ ..G #.q Z >.,.>.U )+      ",
"                                        7+q ] = ] _ 1 6 6 1 < < _ _ < 1 6 9 a e e e i u F F g >+  e+..q ..u 2.8 C E y H r+      ",
"                                        7+s.]...#.Q G w k e 6 < _ _ _ < 6 6 a a 6 6 < _ = # @ M       r+i+2+(+A.2.J.2+          ",
"                                        6+Z.P.Z.%+'+(+[+2+2+[+(+>+>+W.P.J.A.f.].Q u i 6 { $ + 5                                 ",
"                                        '+f.5.A.J.#+'+{+(+[+2+2+2+2+|+6+7+7+7+7+2+[+(+%+J.f.V F                                 ",
"                                        z.e - # = [ b p G #.2.s.A.P.%+'+(+[+[+[+(+(+'+W.P.z.2.2.                                ",
"                                        '+G 9 _ - $ - ' ~ ~ ~ ~ ~ ~ ~ ~ ] 1 9 i q u F F G w u P.                                ",
"                                        |+w 1 - # # # % = - ; ~ ~ ! = # # % $ & - - = $ # @ @ J.                                ",
"                                          |+Q 9 ] $ # $ & = = ~ ~ ~ % # # # = ] _ ] - @ + + [ r+                                ",
"                                          p+^.1 # # + # # # # # $ # @ # - = ] _ < _ ~ $ # @ ].                                  ",
"                                          o+..< # % = $ + . . @ ^.w # - = ~ _ 1 6 < ! % $ P.                                    ",
"                                          e+Q _ $ - = $ + . . { o+A.$ = ~ _ < 9 9 1 ~ = ' p+                                    ",
"                                          0+u ~ # - - # @ . @ ].C+k.~ ] _ < 1 b e 6 ] - a                                       ",
"                                          |+i - # - - # @ . % 0+F+k.< _ < 6 1 e e 6 ~ & 2.                                      ",
"                                          [+g $ # - & # . . i o+C+f.< < 1 6 1 b e 6 ~ % [+                                      ",
"                                          7+e $ # - $ # . + k V ....] _ < 1 < 6 5 < = - o+                                      ",
"                                          e+p $ # $ # @ . ] i 1 $ w = ; ] _ _ < < ~ & d                                         ",
"                                            V $ # # # + @ 1 6 - # M - = ~ _ _ < ] = $ ^.                                        ",
"                                            |+[ @ @ @ + @ < _ $ @ V = % ! _ _ _ ! - $ (+                                        ",
"                                              [+6 @ + + @ $ % # @ ..' - ] _ < _ ~ & % o+                                        ",
"                                                  9+i - # # = = % ^._ = / < _ _ ~ % q                                           ",
"                                                    f.= = ~ ~ ; [ (+1 - _ _ < _ ~ # W.                                          ",
"                                                      >+p / 1 w b+f+9 - ] < _ ] & # b+                                          ",
"                                                                  6+5 $ = ~ ! - $ # 2.                                          ",
"                                                                  b+] = = ~ ~ = $ $ ] r+                                        ",
"                                                                  2+_ ~ ~ ~ ~ = / ] ' r+                                        ",
"                                                                  Z.< < 1 _ < 6 5 _ 1                                           ",
"                                                                  f.6 < 1 1 6 9 9 < ..                                          ",
"                                                                  w < 1 6 6 9 b 9 < >+                                          ",
"                                                                  q _ < 1 1 6 6 < 5 o+                                          ",
"                                                                  i+w < 1 1 6 1 e 9+                                            ",
"                                                                      i+{+%+(+e+                                                ",
"                                                                                                                                ",
"                                                                                                                                ",
"                                                                                                                                "};
