/* XPM */
static char * Robber_end_xpm[] = {
"64 64 567 2",
"  	c #8DE9F8",
". 	c #A9EAF6",
"+ 	c #ADDFE8",
"@ 	c #A8E6F2",
"# 	c #A4E5F1",
"$ 	c #434849",
"% 	c #1F1F1F",
"& 	c #1E2122",
"* 	c #90BEC7",
"= 	c #91E9F8",
"- 	c #9AEAF7",
"; 	c #5C7074",
"> 	c #2A2A2A",
", 	c #333333",
"' 	c #313131",
") 	c #222222",
"! 	c #79989E",
"~ 	c #9CE9F6",
"{ 	c #8FE9F8",
"] 	c #A4BDC3",
"^ 	c #393939",
"/ 	c #454545",
"( 	c #373737",
"_ 	c #1D1D1D",
": 	c #485B5F",
"< 	c #96E9F7",
"[ 	c #ACEAF5",
"} 	c #4A4A4A",
"| 	c #2E2F30",
"1 	c #313231",
"2 	c #393837",
"3 	c #423A34",
"4 	c #523D2D",
"5 	c #3E3733",
"6 	c #9BE3F0",
"7 	c #ACE4EE",
"8 	c #363537",
"9 	c #282624",
"0 	c #5B4737",
"a 	c #8F7053",
"b 	c #A27C5D",
"c 	c #AB8466",
"d 	c #C58C60",
"e 	c #88563F",
"f 	c #A5DEE9",
"g 	c #B0EAF4",
"h 	c #684D3B",
"i 	c #9C7253",
"j 	c #BE9069",
"k 	c #CD926B",
"l 	c #CF976D",
"m 	c #896F54",
"n 	c #C28C62",
"o 	c #A96441",
"p 	c #BF7D66",
"q 	c #B8E1E6",
"r 	c #8EE9F8",
"s 	c #B7B4B0",
"t 	c #AF8058",
"u 	c #A97A57",
"v 	c #CC765C",
"w 	c #CD785D",
"x 	c #C69A70",
"y 	c #CC9566",
"z 	c #C0784B",
"A 	c #CC774C",
"B 	c #CFC9C1",
"C 	c #9DEBF8",
"D 	c #C4A69B",
"E 	c #C4865B",
"F 	c #C79062",
"G 	c #CA6F56",
"H 	c #C46450",
"I 	c #BE8866",
"J 	c #B6855F",
"K 	c #C58255",
"L 	c #C39A85",
"M 	c #ACEBF6",
"N 	c #A4EBF7",
"O 	c #CA7551",
"P 	c #C78356",
"Q 	c #B37C54",
"R 	c #8C4E37",
"S 	c #7A3A2A",
"T 	c #8E4A38",
"U 	c #7B4331",
"V 	c #C18258",
"W 	c #C5AB9D",
"X 	c #C3DCDF",
"Y 	c #C3A290",
"Z 	c #8A543B",
"` 	c #A85340",
" .	c #B46A58",
"..	c #B06F5B",
"+.	c #7D4B3A",
"@.	c #A56444",
"#.	c #C9B9AF",
"$.	c #92EAF8",
"%.	c #BAD8DC",
"&.	c #92593A",
"*.	c #875644",
"=.	c #764939",
"-.	c #54281E",
";.	c #55241A",
">.	c #A89A94",
",.	c #A0EAF7",
"'.	c #9FEBF8",
").	c #AFE4EE",
"!.	c #B8DAE1",
"~.	c #C6DBE0",
"{.	c #A6CED6",
"].	c #A1E5F1",
"^.	c #9BEAF8",
"/.	c #AECBD0",
"(.	c #8E9C9F",
"_.	c #5B2C21",
":.	c #703C2D",
"<.	c #753F2E",
"[.	c #968683",
"}.	c #A7B0B2",
"|.	c #BAB8B6",
"1.	c #464443",
"2.	c #BFBEBD",
"3.	c #737373",
"4.	c #7D7D7D",
"5.	c #C3C3C3",
"6.	c #9CB5BB",
"7.	c #9EE2EE",
"8.	c #CEEAED",
"9.	c #ABD5DD",
"0.	c #524440",
"a.	c #443B38",
"b.	c #5E5D5B",
"c.	c #686867",
"d.	c #939293",
"e.	c #A7A6A6",
"f.	c #444444",
"g.	c #B9B9B9",
"h.	c #383838",
"i.	c #B5B5B5",
"j.	c #929292",
"k.	c #3A3A3A",
"l.	c #7B7F80",
"m.	c #A4E2ED",
"n.	c #BDCBCC",
"o.	c #CDB9AE",
"p.	c #9EEAF7",
"q.	c #9FEAF7",
"r.	c #AAC6CB",
"s.	c #949393",
"t.	c #B3B2B1",
"u.	c #C1C1C0",
"v.	c #C1C1C1",
"w.	c #BEBEBE",
"x.	c #A8A8A8",
"y.	c #9A9A9A",
"z.	c #272727",
"A.	c #8C8C8C",
"B.	c #404040",
"C.	c #A5A5A5",
"D.	c #A3A3A3",
"E.	c #C7C7C7",
"F.	c #B2B5B6",
"G.	c #ABE8F4",
"H.	c #C6EBF1",
"I.	c #C0C0BB",
"J.	c #CBAEA1",
"K.	c #CC896B",
"L.	c #CAA993",
"M.	c #CEC3B8",
"N.	c #A5EAF6",
"O.	c #90E9F8",
"P.	c #C4DEE4",
"Q.	c #A1A1A1",
"R.	c #858585",
"S.	c #636363",
"T.	c #4B4B4B",
"U.	c #434343",
"V.	c #3E3E3E",
"W.	c #555554",
"X.	c #D7D7D7",
"Y.	c #D2D2D2",
"Z.	c #7F7F7F",
"`.	c #BDBDBD",
" +	c #828282",
".+	c #3B3B3B",
"++	c #7F9397",
"@+	c #B8E5EE",
"#+	c #CAADA7",
"$+	c #CE8358",
"%+	c #C97A4F",
"&+	c #C97E53",
"*+	c #8E5940",
"=+	c #A1B2B6",
"-+	c #AEEBF6",
";+	c #A3EAF6",
">+	c #B8D6DC",
",+	c #4B4B4A",
"'+	c #535353",
")+	c #727272",
"!+	c #888888",
"~+	c #999999",
"{+	c #A4A4A4",
"]+	c #A7A7A7",
"^+	c #A6A6A6",
"/+	c #9F9F9F",
"(+	c #8A8A89",
"_+	c #717270",
":+	c #DADADA",
"<+	c #97D9FA",
"[+	c #959595",
"}+	c #A2E9F5",
"|+	c #ADE1EA",
"1+	c #B5938C",
"2+	c #BA6847",
"3+	c #BC6F4F",
"4+	c #7B4431",
"5+	c #81807D",
"6+	c #898886",
"7+	c #A2A4A4",
"8+	c #848A8B",
"9+	c #959392",
"0+	c #767472",
"a+	c #A3A1A0",
"b+	c #C2C2C2",
"c+	c #C4C4C4",
"d+	c #C5C5C5",
"e+	c #C6C6C6",
"f+	c #B7B7B7",
"g+	c #ADAEAC",
"h+	c #999998",
"i+	c #D5D5D5",
"j+	c #BABABA",
"k+	c #B1DCE5",
"l+	c #9EE9F6",
"m+	c #B5DDE4",
"n+	c #798487",
"o+	c #838281",
"p+	c #595756",
"q+	c #878786",
"r+	c #51504F",
"s+	c #9C9B9A",
"t+	c #737171",
"u+	c #A1A09E",
"v+	c #6B6B6B",
"w+	c #585858",
"x+	c #515151",
"y+	c #494949",
"z+	c #2E2E2E",
"A+	c #292929",
"B+	c #323232",
"C+	c #818181",
"D+	c #C0C0BF",
"E+	c #9A9A99",
"F+	c #5A5857",
"G+	c #7C969B",
"H+	c #95EAF8",
"I+	c #A6D7E0",
"J+	c #778C90",
"K+	c #808080",
"L+	c #2D2D2D",
"M+	c #8D9DA0",
"N+	c #637175",
"O+	c #2D2B2A",
"P+	c #363636",
"Q+	c #414141",
"R+	c #505050",
"S+	c #565656",
"T+	c #525252",
"U+	c #494A49",
"V+	c #40403F",
"W+	c #343333",
"X+	c #E4E4E4",
"Y+	c #BCBCBD",
"Z+	c #634532",
"`+	c #BA855A",
" @	c #B1876D",
".@	c #98EAF7",
"+@	c #A0EBF8",
"@@	c #9DEAF7",
"#@	c #A3BCC1",
"$@	c #8D8A8B",
"%@	c #B0B0B0",
"&@	c #B8B8B8",
"*@	c #B8B9B6",
"=@	c #B0AFAD",
"-@	c #A19F9D",
";@	c #959391",
">@	c #E0E1DE",
",@	c #E9E5DF",
"'@	c #C69D6F",
")@	c #CC9B6A",
"!@	c #C78753",
"~@	c #BBB6B1",
"{@	c #91E9F7",
"]@	c #9EE8F3",
"^@	c #B4C7CB",
"/@	c #A4A3A4",
"(@	c #AAAAAA",
"_@	c #A2A2A2",
":@	c #9C9C9C",
"<@	c #989797",
"[@	c #91908E",
"}@	c #888785",
"|@	c #7D7A79",
"1@	c #DDDCDA",
"2@	c #E0CDB9",
"3@	c #BF754C",
"4@	c #C88D5C",
"5@	c #C88759",
"6@	c #B86F46",
"7@	c #577A3F",
"8@	c #7AAE98",
"9@	c #A6B7BA",
"0@	c #202020",
"a@	c #1E1E1E",
"b@	c #262626",
"c@	c #282828",
"d@	c #201F1D",
"e@	c #1C1A18",
"f@	c #1A1917",
"g@	c #4D4E4C",
"h@	c #DADAD9",
"i@	c #D8BDAA",
"j@	c #8B5236",
"k@	c #AF6740",
"l@	c #BC724A",
"m@	c #A85735",
"n@	c #593721",
"o@	c #1A170C",
"p@	c #92C2C9",
"q@	c #BEE5ED",
"r@	c #141414",
"s@	c #161616",
"t@	c #1A1A1A",
"u@	c #242424",
"v@	c #20201E",
"w@	c #1B1A18",
"x@	c #1C1B19",
"y@	c #7E7E7C",
"z@	c #A79889",
"A@	c #9C6148",
"B@	c #843F26",
"C@	c #6C381F",
"D@	c #523C1A",
"E@	c #42391A",
"F@	c #1C180A",
"G@	c #A4CACF",
"H@	c #AAC9CF",
"I@	c #191919",
"J@	c #131313",
"K@	c #1F1F1D",
"L@	c #1B1B19",
"M@	c #4E4E4C",
"N@	c #D1D1D0",
"O@	c #BFBFBF",
"P@	c #C9C9C9",
"Q@	c #CBC8C2",
"R@	c #8B806C",
"S@	c #5F4921",
"T@	c #58481E",
"U@	c #504119",
"V@	c #3F3717",
"W@	c #2B2610",
"X@	c #352E13",
"Y@	c #9EC1C5",
"Z@	c #93EAF8",
"`@	c #AEE5EF",
" #	c #444B4D",
".#	c #363635",
"+#	c #282826",
"@#	c #2B2B29",
"##	c #949494",
"$#	c #E7E7E7",
"%#	c #232323",
"&#	c #222721",
"*#	c #949B91",
"=#	c #C1BCAF",
"-#	c #6A5923",
";#	c #675921",
">#	c #5A4C1D",
",#	c #493E18",
"'#	c #1F1C0D",
")#	c #241E0E",
"!#	c #3C3415",
"~#	c #3C3414",
"{#	c #99BABE",
"]#	c #B7E4EC",
"^#	c #353535",
"/#	c #313130",
"(#	c #21211F",
"_#	c #1A1A19",
":#	c #4F4F4E",
"<#	c #686868",
"[#	c #2F2E2F",
"}#	c #151515",
"|#	c #141C15",
"1#	c #326123",
"2#	c #2D641A",
"3#	c #484F1B",
"4#	c #65561F",
"5#	c #5D4F1B",
"6#	c #4E411A",
"7#	c #3B3214",
"8#	c #231E0C",
"9#	c #282F0E",
"0#	c #373612",
"a#	c #3D3512",
"b#	c #3C3313",
"c#	c #97B6B9",
"d#	c #94EAF8",
"e#	c #777A7B",
"f#	c #292928",
"g#	c #1C1D1A",
"h#	c #6D6D6D",
"i#	c #212121",
"j#	c #111111",
"k#	c #0F110F",
"l#	c #2B521C",
"m#	c #316D1A",
"n#	c #468C29",
"o#	c #524D1A",
"p#	c #58491E",
"q#	c #3D3213",
"r#	c #30290D",
"s#	c #3A3212",
"t#	c #33390F",
"u#	c #233609",
"v#	c #3A3511",
"w#	c #3A3210",
"x#	c #464133",
"y#	c #ADEBF6",
"z#	c #AAEAF6",
"A#	c #343434",
"B#	c #2F2F2F",
"C#	c #232322",
"D#	c #1A1B18",
"E#	c #464646",
"F#	c #5D5D5D",
"G#	c #101010",
"H#	c #3C6D2F",
"I#	c #47952B",
"J#	c #458426",
"K#	c #484315",
"L#	c #5C4D1C",
"M#	c #56491C",
"N#	c #4A3D19",
"O#	c #433916",
"P#	c #403814",
"Q#	c #30370E",
"R#	c #23360A",
"S#	c #363211",
"T#	c #AECBCF",
"U#	c #A9D8E1",
"V#	c #2C2C2C",
"W#	c #1F1F1E",
"X#	c #2B2B2B",
"Y#	c #ADC0C5",
"Z#	c #C0CFCD",
"`#	c #403F15",
" $	c #413914",
".$	c #4C3F19",
"+$	c #54461A",
"@$	c #574A1E",
"#$	c #4C3F18",
"$$	c #443915",
"%$	c #413814",
"&$	c #3F3714",
"*$	c #2B340C",
"=$	c #7B8A87",
"-$	c #9AEAF8",
";$	c #8CADB3",
">$	c #252525",
",$	c #1B1B1B",
"'$	c #5C5C5C",
")$	c #536164",
"!$	c #AEE0E9",
"~$	c #CFEEF1",
"{$	c #4E431C",
"]$	c #4D4118",
"^$	c #504319",
"/$	c #524419",
"($	c #53461B",
"_$	c #55471B",
":$	c #463B15",
"<$	c #423814",
"[$	c #3E3614",
"}$	c #46412F",
"|$	c #ADE7F1",
"1$	c #4B5B5E",
"2$	c #1C1C1C",
"3$	c #808C8E",
"4$	c #A2BFC4",
"5$	c #96B6BC",
"6$	c #A8D3DB",
"7$	c #9BEAF7",
"8$	c #C1EFF6",
"9$	c #574C29",
"0$	c #514419",
"a$	c #53461A",
"b$	c #54471B",
"c$	c #56471B",
"d$	c #51451A",
"e$	c #433815",
"f$	c #3D3415",
"g$	c #A8CBD0",
"h$	c #A1E7F3",
"i$	c #B2DCE4",
"j$	c #AAEDF8",
"k$	c #655C41",
"l$	c #53451A",
"m$	c #54471C",
"n$	c #4A401A",
"o$	c #7E8E8B",
"p$	c #96EAF8",
"q$	c #A5D8E1",
"r$	c #5D5E5E",
"s$	c #A5ECF8",
"t$	c #7A7766",
"u$	c #52441A",
"v$	c #524519",
"w$	c #524619",
"x$	c #53461C",
"y$	c #4F441C",
"z$	c #473D18",
"A$	c #4C4B3C",
"B$	c #A9E8F3",
"C$	c #99BCC2",
"D$	c #A8BABD",
"E$	c #98A9A4",
"F$	c #483D1B",
"G$	c #403618",
"H$	c #342E17",
"I$	c #464C4A",
"J$	c #839CA1",
"K$	c #A1C5CD",
"L$	c #AFE5EF",
"M$	c #758386",
"N$	c #B9E3EC",
"O$	c #B3E8F2",
"P$	c #A7CED5",
"Q$	c #AADFE9",
"R$	c #A5E9F5",
"S$	c #A4ECF8",
"T$	c #3C3C3C",
"U$	c #58595A",
"V$	c #A2ECF8",
"W$	c #B0E4EE",
"X$	c #A1B7BB",
"Y$	c #B4E8F1",
"Z$	c #A1C7CE",
"`$	c #96B1B6",
" %	c #B1E0E9",
".%	c #585B5B",
"+%	c #303030",
"@%	c #474747",
"#%	c #A5EBF8",
"$%	c #AFEAF5",
"%%	c #3F4C4F",
"&%	c #97E9F7",
"*%	c #ABDAE2",
"=%	c #A3C9D0",
"-%	c #9CC0C7",
";%	c #95B6BC",
">%	c #8EACB2",
",%	c #95B3B9",
"'%	c #97EAF8",
"                                                                                                                                ",
"                                                                                                                                ",
"                                                                                                                                ",
"                                                                                                                                ",
"                                                                                                                                ",
"                                                                                                                                ",
"                                                                                                                                ",
"                                                                                                                                ",
"                                                                                                                                ",
"                                                                                                                                ",
"                                                                                                                                ",
"                                                  . + @                                                                         ",
"                                                # $ % & * =                                                                     ",
"                                              - ; > , ' ) ! ~                                                                   ",
"                                            { ] , ^ / / ( _ : <                                                                 ",
"                                            [ } | 1 ^ 2 3 4 5 6                                                                 ",
"                                            7 8 9 0 a b c d e f                                                                 ",
"                                            g h i j k l m n o p q                                                               ",
"                                            r s t u v w x y z A B                                                               ",
"                                            C D E F G H I J K L M                                                               ",
"                                            N O P Q R S T U V W r                                                               ",
"                                            r X Y Z `  ...+.@.#.$.                                                              ",
"                                                %.&.*.=.-.;.>.,.'.).!.~.{.].                                                    ",
"                                                ^./.(._.:.<.[.}.|.1.2.3.4.5.6.7.                                                ",
"                        8.C                       $.9.0.a.b.c.d.e.f.g.h.i.j.k.l.m.                                              ",
"                        n.o.p.^.q.              = r.s.t.u.v.w.x.y.z.A.B.C.B.D.E.F.G.                                            ",
"                      H.I.J.K.L.M.N.$.        O.P.Q.R.S.T.U.V., / ^ W.X.Y.Z.`. +.+++r                                           ",
"                      $.@+#+$+%+&+*+=+-+{ { ;+>+,+'+)+!+~+{+]+^+/+(+_+:+<+<+[+V.!+j.}+                                          ",
"                          |+1+2+3+4+5+6+7+8+9+0+a+b+c+d+E.e+5.`.f+g+h+v.<+<+i+^+e+j+k+                                          ",
"                              l+m+n+o+p+q+r+s+t+u+j.Z.v+w+x+y+V.z+A+B+C+<+<+<+D+E+F+G+                                          ",
"                                  H+I+J+K+L+M+N+O+P+, B+Q+R+S+T+U+V+W+S+X+<+<+Y+Z+`+ @.@                                        ",
"                                      r +@@@r #@$@D.%@&@`.v.v.w.*@=@-@;@>@<+<+,@'@)@!@~@{@]@                                    ",
"                                              ^@/@(@x.C._@/+:@<@[@}@|@|@1@<+<+2@3@4@5@6@7@8@r                                   ",
"                                              9@0@a@_ a@) b@c@b@d@e@f@g@h@<+<+i@j@k@l@m@n@o@p@r                                 ",
"                                              q@) r@s@t@0@u@z.b@v@w@x@y@<+<+<+<+z@A@B@C@D@E@F@G@r                               ",
"                                              r H@I@J@r@t@z.B+z+K@L@M@N@<+O@P@<+Q@R@S@T@U@V@W@X@Y@O.                            ",
"                                                Z@`@ #t@z+B+.#+#L@@###$#]+%#&#*#=#-#;#>#,#'#)#!#~#{#=                           ",
"                                                    ]#^#^#B+/#(#_#:#<#[#}#|#1#2#3#4#5#6#7#8#9#0#a#b#c#$.                        ",
"                                                    d#e#' ' f#g#%#h#i#j#j#k#l#m#n#o#p#q#r#s#t#u#v#w#x#y#                        ",
"                                                    z#A#z+B#C#D#E#F#j#G#j#_#H#I#J#K#L#M#N#O#P#Q#R#S#T#                          ",
"                                                    U#B#V#> W#a@v+% j#J@X#Y#Z#`# $.$+$@$#$$$%$&$*$=$-$                          ",
"                                                    ;$V#X#>$,$k.'$s@r@)$!${ ~${$]$^$/$($_$:$<$[$}$|$                            ",
"                                                  O.1$A+> ) 2$3$4$5$6$7$    8$9$0$/$a$b$c$d$e$f$g$                              ",
"                                                  h$A+z.c@a@A+i$            j$k$/$l$b$b$b$m$n$o$p$                              ",
"                                                  q$b@z.b@2$r$s$            Z@t$u$v$w$x$y$z$A$B$                                ",
"                                                  C$%#b@u@_ D$                E$F$G$H$I$J$K$L$                                  ",
"                                                r M$i#b@i#>$N$                O$P$Q$R$Z@                                        ",
"                                                S$T$%#b@a@U$V$                                                                  ",
"                                                W$b@X#b@_ X$                                                                    ",
"                                            Y$Z$`$t@a@u@u@ %                                                                    ",
"                                          '..%k.+%A+A+i#@%#%                                                                    ",
"                                          $%%%B#^#z.>$) ( q.                                                                    ",
"                                            &%*%=%-%;%>%,%'%                                                                    ",
"                                                                                                                                ",
"                                                                                                                                ",
"                                                                                                                                ",
"                                                                                                                                ",
"                                                                                                                                ",
"                                                                                                                                ",
"                                                                                                                                ",
"                                                                                                                                ",
"                                                                                                                                ",
"                                                                                                                                ",
"                                                                                                                                "};
