/* XPM */
static char *e71c8973320b49ff8ac014e1f0d2bdee0Lyx6iA3eqRRbfbY[] = {
/* columns rows colors chars-per-pixel */
"64 64 230 2 ",
"   c #0C0F0B",
".  c #171312",
"X  c #121412",
"o  c #1A1615",
"O  c #1B1817",
"+  c #181A18",
"@  c #1D1A19",
"#  c #1B1D1A",
"$  c #2D1813",
"%  c #201C1B",
"&  c #231F1E",
"*  c #281E1A",
"=  c #1F211E",
"-  c #31221F",
";  c #1F1D20",
":  c #1D2123",
">  c #262221",
",  c #222421",
"<  c #252725",
"1  c #2E2420",
"2  c #292524",
"3  c #282A27",
"4  c #2D2A29",
"5  c #2C2E2B",
"6  c #352A27",
"7  c #352E24",
"8  c #313330",
"9  c #353130",
"0  c #3B3736",
"q  c #363835",
"w  c #393B38",
"e  c #471F17",
"r  c #502313",
"t  c #51261C",
"y  c #672B1E",
"u  c #482B23",
"i  c #532C20",
"p  c #493327",
"a  c #593E2F",
"s  c #423E3D",
"d  c #633222",
"f  c #6D3A2A",
"g  c #3D6214",
"h  c #3E403D",
"j  c #3D7021",
"k  c #407413",
"l  c #41721B",
"z  c #4D731E",
"x  c #4D791B",
"c  c #6F412E",
"v  c #6E452F",
"b  c #624631",
"n  c #7D4532",
"m  c #79503F",
"M  c #477F27",
"N  c #4B7128",
"B  c #5F7625",
"V  c #4E6B34",
"C  c #6C722D",
"Z  c #707B2D",
"A  c #7D7C31",
"S  c #474341",
"D  c #454644",
"F  c #4C4847",
"G  c #4C4E4B",
"H  c #524E4C",
"J  c #575251",
"K  c #545653",
"L  c #5E5A58",
"P  c #5B5D5A",
"I  c #6B5347",
"U  c #74594E",
"Y  c #6B5E5A",
"T  c #7C634C",
"R  c #607E4C",
"E  c #64605F",
"W  c #616360",
"Q  c #696463",
"!  c #696B68",
"~  c #6F6A69",
"^  c #6F716F",
"/  c #75706F",
"(  c #7C7877",
")  c #787B78",
"_  c #893924",
"`  c #834C36",
"'  c #804F39",
"]  c #904D35",
"[  c #984931",
"{  c #86583D",
"}  c #9D5B35",
"|  c #AF4F36",
" . c #B44B35",
".. c #A45538",
"X. c #A45C3C",
"o. c #B05E3D",
"O. c #BD5B3C",
"+. c #8E7A3B",
"@. c #A76438",
"#. c #C65933",
"$. c #C75A34",
"%. c #C65F35",
"&. c #C8553F",
"*. c #8C5440",
"=. c #995E41",
"-. c #926549",
";. c #896450",
":. c #956754",
">. c #9E6F52",
",. c #8A7055",
"<. c #A26041",
"1. c #A5624E",
"2. c #A16C49",
"3. c #BE6C44",
"4. c #BE6D4B",
"5. c #A67641",
"6. c #B6724C",
"7. c #A47451",
"8. c #AC7652",
"9. c #AE765F",
"0. c #B57753",
"q. c #957766",
"w. c #9F7467",
"e. c #827D7C",
"r. c #CB5B48",
"t. c #C56542",
"y. c #C26A45",
"u. c #C9644B",
"i. c #D06F4D",
"p. c #CA754D",
"a. c #C17A4D",
"s. c #C6794E",
"d. c #C97B4A",
"f. c #C17552",
"g. c #C17F5F",
"h. c #458121",
"j. c #7B8637",
"k. c #718661",
"l. c #778668",
"z. c #7E807D",
"x. c #88813B",
"c. c #A1803E",
"v. c #8B8D5A",
"b. c #A7814E",
"n. c #AA8F4A",
"m. c #BA814E",
"M. c #AE8E58",
"N. c #B8835D",
"B. c #8F8C60",
"V. c #849973",
"C. c #B6876E",
"Z. c #B58D76",
"A. c #CA8254",
"S. c #CA8857",
"D. c #CA8F5B",
"F. c #CA895E",
"G. c #CA945E",
"H. c #C98E61",
"J. c #C98F6C",
"K. c #CB9666",
"L. c #C89A67",
"P. c #C8956A",
"I. c #D39663",
"U. c #D49F6E",
"Y. c #C68372",
"T. c #C78970",
"R. c #C69576",
"E. c #CDA16D",
"W. c #CEA778",
"Q. c #D4A07B",
"!. c #878281",
"~. c #8C8786",
"^. c #878986",
"/. c #948F8E",
"(. c #9A938C",
"). c #919390",
"_. c #979996",
"`. c #9D9897",
"'. c #A6978C",
"]. c #A99E89",
"[. c #A29D9C",
"{. c #AD9F9A",
"}. c #BC9F90",
"|. c #9DA09C",
" X c #BCA987",
".X c #A0AE96",
"XX c #BAA791",
"oX c #B2AA97",
"OX c #A1A4A1",
"+X c #A8A3A2",
"@X c #ACA7A6",
"#X c #A8ABA7",
"$X c #AEB0AD",
"%X c #B2B4A5",
"&X c #BBB7A3",
"*X c #B3B9A2",
"=X c #B6B1B0",
"-X c #B2B4B1",
";X c #B8BAB7",
":X c #BEB9B7",
">X c #BDBFBC",
",X c #C59C87",
"<X c #C7998C",
"1X c #D1AC88",
"2X c #C3BEBD",
"3X c #D8BFB0",
"4X c #BDC0B0",
"5X c #D7C5AB",
"6X c #CECABB",
"7X c #DBC8B7",
"8X c #E3D0BF",
"9X c #8DE9F8",
"0X c #C2C5C1",
"qX c #C8CAC6",
"wX c #CDC8C6",
"eX c #CFD2CE",
"rX c #D8D6C7",
"tX c #DCD4CD",
"yX c #DBD8CF",
"uX c #D8DAD7",
"iX c #E4D4C8",
"pX c #E9E2D4",
"aX c #E6E4DB",
"sX c #E5E0DE",
"dX c #F6ECDF",
"fX c #E1E4E0",
"gX c #EFECE3",
"hX c #F3F1E1",
"jX c #F6F8F5",
"kX c #FAFCF9",
/* pixels */
"9X9X9X9X9X9X9X9X9X9X9X9X9X9X9X9X9X9X9X9X9X9X9X9X9X9X9X9X9X9X9X9X9X9X9X9X9X9X9X9X9X9X9X9X9X9X9X9X9X9X9X9X9X9X9X9X9X9X9X9X9X9X9X9X",
"9X9X9X9X9X9X9X9X9X9X9X9X9X9X9X9X9X9X9X9X9X9X9X9X9X9X9X9X9X9X9X9X9X9X9X9X9X9X9X9X9X9X9X9X9X9X9X9X9X9X9X9X9X9X9X9X9X9X9X9X9X9X9X9X",
"9X9X9X9X9X9X9X9X9X9X9X9X9X9X9X9X9X9X9X9X9X9X9X9X9X9X9X9X9X9X9X>X|.^.^.$XfX9X9X9X9X9X9X9X9X9X9X9X9X9X9X9X9X9XaXoX].&X6XgX9X9X9X9X",
"9X9X9X9X9X9X9X9X9X9X9X9X9X9X9X9X9X9X9X9X9X9X9X9X9X9X9X9X9X@Xw # # # , , < ( fX9X9X9X9X9X9X9X9X9X9X9X9X9X9X9X9X9X9X9X9X9X9X9X9X9X",
"9X9X9X9X9X9X9X9X9X9X9X9X9X9X9X9X9X9X9X9X9X9X9X9X9X9X9XfX! # # # # # , , , , D uX9X9X9X9X9X9X9X9X9X9X9X9X9X9X9X9X9X9X9X9X9X9X9X9X",
"9X9X9X9X9X9X9X9X6Xk.V..X4XyX9X9X9X9X9X9X9X9X9X9X9X9XuXD % = , , < < 3 3 , , , ~ 9X9X9X9X9X9X9X9X9X9X9X9X9X9X9X9X9X9X9X9X9X9X9X9X",
"9X9X9X9X9X4XV.N g z x M l V *X9X9X9X9X9X9X9X9X9X9XqXw 3 8 8 8 8 8 8 w h h q 5 3 #X9X9X9X9X9X9X9X9X9X9X9X9X9X9X9X9X9X9X9X9X9X9X9X",
"9X9X9XaXl.j j +.5.m.m.L.B h.M *X9X9X9X9X9X9X9X9X0X< , 3 9 8 8 8 8 8 q S F s q 3 < ^.9X9X9X9X9X9X9X9X9X9X9X9X9X9X9X9X9X9X9X9X9X9X",
"9X9XaXR g N C m.y.p.A.L.Z k h.M .X9X9X9X9X9X9X9X~ % , 3 3 3 3 3 3 3 5 w S s 8 3 , = :X9X9X9X9X9X9X9X9X9X9X9X9X9X9X9X9X9X9X9X9X9X",
"9XgXR j g x.+.A.p.t.D.M.B j.h.N *X9X9X9X9X9X9X9XK # = = & & * - p b T ,.,.T p 1 & & ).9X9X9X9X9X9X9X9X9X9X9X9X9X9X9X9X9X9X9X9X9X",
"9X%Xj l B A 5.p.p.y.D.b.A n.B.rX9X9X9X9X9X9X9X9X) 7 p b { -.2.N.>.-.N.W.W.W.>.d e $ e.9X9X9X9X9X9X9X9X9X9X9X9X9X9X9X9X9X9X9X9X9X",
"9X9XeXv.x.C 5.a.A.A.D.m.c. X9X9X9X9X9X9X9X9X9X9XtX:.m { 0.A.A.S.0.J.P.E.W.W.N.n X.2.'.9X9X9X9X9X9X9X9X9X9X9X9X9X9X9X9X9X9X9X9X9X",
"9X9X9XdX0.@.} a.s.S.S.D.5X9X9X9X9X9X9X9X9X9X9X9X9X9.<.2.4.O.u.p.0.{ 7.L.W.W.K.X.$.%.Q.9X9X9X9X9X9X9X9X9X9X9X9X9X9X9X9X9X9X9X9X9X",
"9X9X9X9X7Xf.3.p.f.S.D.D.8X9X9X9X9X9X9X9X9X9X9X9X9XZ.n ` | r.r.i.A.S.D.L.W.W.L.D.t.#.S.pX9X9X9X9X9X9X9X9X9X9X9X9X9X9X9X9X9X9X9X9X",
"9X9X9X9X9XgX,Xf.s.s.A.F.pX9X9X9X9X9X9X9X9X9X9X9X<Xg.X.o.| &.r.u.s.S.D.K.W.W.E.G.d.p.R.9X9X9X9X9X9X9X9X9X9X9X9X9X9X9X9X9X9X9X9X9X",
"9X9X9X9X9X9X9X9.y.3.o.d >X9X9X9X9X9X9X9X9X9X9X9XY.g.<.X...|  .| <.*.` 7.E.W.E.G.d.4.{.9X9X9X9X9X9X9X9X9X9X9X9X9X9X9X9X9X9X9X9X9X",
"9X9X9X9X9X9X:Xu v a 6 9 ;X9X9X9X9X9X9X9X9X9X9X9XiXT.' t t r t d n *.n n L.E.E.G.S.a.iX9X9X9X9X9X9X9X9X9X9X9X9X9X9X9X9X9X9X9X9X9X",
"9X9X9X9X9X9X9X/ E / ^.#XqX9X9X9X9X9X9X9X9X9X9X9X9XpXm c [ ] *.*.:.:.n f H.G.G.D.A.J.dX9X9X9X9X9X9X9X9X9X9X9X9X9X9X9X9X9X9X9X9X9X",
"9X9X9X9X9X9X9X/.`.OX#X#X>X9X9X9X9X9X9X9X9X9X9X9X9X9Xq.d X.1.C.Z.Z.;.d d 0.6.s.3.6.8X9X9X9X9X9X9X9X9X9X9X9X9X9X9X9X9X9X9X9X9X9X9X",
"9X9X9X9X9X9X9X~.).`.[.).Q 9X9X9X9X9X9X9X9X9X9X9X9X9X6XI e t t t e e e y [ ..1.}.aX9X9X9X9X9X9X9X9X9X9X9X9X9X9X9X9X9X9X9X9X9X9X9X",
"9X9X9X9X9X9X9XE 4 5 3 , 3 eX9X9X9X9X9X9X9X9X9X9X9X9X9XtX(.Q I e r y _ ..o.3.7X9X9X9X9X9X9X9X9X9X9X9X9X9X9X9X9X9X9X9X9X9X9X9X9X9X",
"9X9X9X9X9X9X9XOXo @ , 8 / ;XsX9X9X9X9X9X9X9X9X9X9X9X9XfXuX>X(.i f ] <.6.N.8.XXuX9X9X9X9X9X9X9X9X9X9X9X9X9X9X9X9X9X9X9X9X9X9X9X9X",
"9X9X9X9X9X9X9X9X/ Q e.`.#X$XH #X9X9X9X9X9X9X9XfXqX|.L 0 7 4 % % % * * 1 1 1 1 L / ~ +X9X9X9X9X9X9X9X9X9X9X9X9X9X9X9X9X9X9X9X9X9X",
"9X9X9X9X9X9X9X9XwXe.^.).`.E , z.=XE /.:X!.S H e.L S H J P E E E L L K H F s 9 4 < , q `.sX9X9X9X9X9X9X9X9X9X9X9X9X9X9X9X9X9X9X9X",
"9X9X9X9X9X9X9X9X9XOXL F 3 & 9 +X:XQ 9 =X$XH 3 L ~.[.#X-X:X:X2X2X0X0X0X0X0X0X>X;X$X|.~.~ _.D ) qX9X9X9X9X9X9X9X9X9X9X9X9X9X9X9X9X",
"9X9X9X9X9X9X9X9X9X9X=Xs % S ~.+X|.w 3 +X;X! 2 Q e.~.)._.[.OX+X@X@X$X-X;X>X0XwXwXwX0X0X0Xz.5 ! ;XqXeXsX9X9X9X9X9X9X8XJ.P.5XhX9X9X",
"9X9X9X9X9X9X9X9X9X9X9XfX#X~.!.^.H % h |._.D   @ # , < 5 8 8 8 5 5 8 8 w h F J E ~ ) ^.).~.P ;X:X( < P $X9X9X9X8XQ.A.U.F.I.1X9X9X",
"9X9X9X9X9X9X9X9X9X9X9X9X9X9XqX).! L !.~./ 9 9 w h S F F F F D h s w w h h S F F S h q 5 5 ^.#X) 3 !.:X|.! !.}.y.D.U.A.U.d.H.dX9X",
"9X9X9X9X9X9X9X9X9X9X9X9X9X9X9X9X9X9X9X9X9XuX/./.`.+X$X-X:X;X:X;X;X;X;X;X;X-X$X$XOX[.).z.^ / /.3 L #X^.8 ^.~.w. .t.H.F.A.A.J.9X9X",
"9X9X9X9X9X9X9X9X9X9X9X9X9X9X9X9X9X9X9X9X9XqX`.).[.+X$X-X;X:X:X:X2X>X0X0X0X0X0X0X0X0X0X0X2X[.Q = / /.0 Q e.! Y o.O.3.s.s.3.3X9X9X",
"9X9X9X9X9X9X9X9X9X9X9X9X9X9X9X9X9X9X9X9XfXe.q 3 8 h G P ! ^ ) z.~././.|.+X#X$X-X;X>X>X:X;X|.J ~ ~ e.> ! P ~ H =.o.O.o...}.9X9X9X",
"9X9X9X9X9X9X9X9X9X9X9X9X9X9X9X9X9X9X9X9X:XH , # , < 5 8 8 5 3 3 < < 3 5 8 q 0 h h h D J L L S OX9XwX! H ! J ( p ' ] ` U fX9X9X9X",
"9X9X9X9X9X9X9X9X9X9X9X9X9X9X9X9X9X9X9X9X:X!.^ ! ~ W P K F h 8 3 < < < 3 8 8 0 0 8 8 3 < # o . E 9X9X9XfXeX-X#X^.( /.-X9X9X9X9X9X",
"9X9X9X9X9X9X9X9X9X9X9X9X9X9X9X9X9X9X9X9X;X`.).`.|.+X#X$X-X-X$X#XOXOX_.)./.^.e.^ W J D 8 > O X 9 9X9X9X9X9X9X9X9X9X9X9X9X9X9X9X9X",
"9X9X9X9X9X9X9X9X9X9X9X9X9X9X9X9X9X9X9X9X+Xe.) ^./.[.+X@X#X$X-X-X-X-X=X;X:X:X:X:X-X$X#X|./.e.Q L 9X9X9X9X9X9X9X9X9X9X9X9X9X9X9X9X",
"9X9X9X9X9X9X9X9X9X9X9X9X9X9X9X9X9X9X9X9X~.h % o # 4 w G P ~ ( !.^.).|.+X#X$X$X$X#X#X+X_.).~.( ( 9X9X9X9X9X9X9X9X9X9X9X9X9X9X9X9X",
"9X9X9X9X9X9X9X9X9X9X9X9X9X9X9X9X9X9X9X9X+XP q < % O % & = = = = = = = = , 5 q D H J L L P K J ).9X9X9X9X9X9X9X9X9X9X9X9X9X9X9X9X",
"9X9X9X9X9X9X9X9X9X9X9X9X9X9X9X9X9X9X9X9X=XK 5 % o o o + # % ; = = : # o o + O @ % % # O o . . /.9X9X9X9X9X9X9X9X9X9X9X9X9X9X9X9X",
"9X9X9X9X9X9X9X9X9X9X9X9X9X9X9X9X9X9X9X9X9X=XW q , O o O @ # # = = = + o o o # , < , % . X X 4 fX9X9X9X9X9X9X9X9X9X9X9X9X9X9X9X9X",
"9X9X9X9X9X9X9X9X9X9X9X9X9X9X9X9X9X9X9X9X9XsX/ 5 o o X o o o o o O o . o % # , < 3 < = O o . ^ 9X9X9X9X9X9X9X9X9X9X9X9X9X9X9X9X9X",
"9X9X9X9X9X9X9X9X9X9X9X9X9X9X9X9X9X9X9X9X9XuX! 3 o + # O X     . / K o % # = < 5 8 3 : + O ).9X9X9X9X9X9X9X9X9X9X9X9X9X9X9X9X9X9X",
"9X9X9X9X9X9X9X9X9X9X9X9X9X9X9X9X9X9X9X9X9XwXW < O % # O X     > uX^.O # = < 3 q q 5 = # & sX9X9X9X9X9X9X9X9X9X9X9X9X9X9X9X9X9X9X",
"9X9X9X9X9X9X9X9X9X9X9X9X9X9X9X9X9X9X9X9X9X2XJ = o % % o .   . ^ jXz.= , < 3 5 w h 8 , % 0 9X9X9X9X9X9X9X9X9X9X9X9X9X9X9X9X9X9X9X",
"9X9X9X9X9X9X9X9X9X9X9X9X9X9X9X9X9X9X9X9X9X=XD % o % % o .   + 2XkXz.3 < 3 8 5 h h 8 = @ ( 9X9X9X9X9X9X9X9X9X9X9X9X9X9X9X9X9X9X9X",
"9X9X9X9X9X9X9X9X9X9X9X9X9X9X9X9X9X9X9X9X9X$XS O o % @ o     D uXjXe.3 3 5 8 5 w h 8 = + $X9X9X9X9X9X9X9X9X9X9X9X9X9X9X9X9X9X9X9X",
"9X9X9X9X9X9X9X9X9X9X9X9X9X9X9X9X9X9X9X9X9X:Xh O o % O o   X F Q ! ! , < 3 5 3 8 9 3 # % uX9X9X9X9X9X9X9X9X9X9X9X9X9X9X9X9X9X9X9X",
"9X9X9X9X9X9X9X9X9X9X9X9X9X9X9X9X9X9X9X9X9XwXG O o O o .   , D 5 O K # ; , < < 3 3 = @ s 9X9X9X9X9X9X9X9X9X9X9X9X9X9X9X9X9X9X9X9X",
"9X9X9X9X9X9X9X9X9X9X9X9X9X9X9X9X9X9X9X9X9X9XQ O o o o X . 5 8 % o E % # = < < 3 , # O / 9X9X9X9X9X9X9X9X9X9X9X9X9X9X9X9X9X9X9X9X",
"9X9X9X9X9X9X9X9X9X9X9X9X9X9X9X9X9X9X9X9X9X9X=X4 . . . X . 3 < O . Q # + : < < < : % O #X9X9X9X9X9X9X9X9X9X9X9X9X9X9X9X9X9X9X9X9X",
"9X9X9X9X9X9X9X9X9X9X9X9X9X9X9X9X9X9X9X9X9X9X9X$X8 . X X . O + o . ! & % , < 3 < = @ + uX9X9X9X9X9X9X9X9X9X9X9X9X9X9X9X9X9X9X9X9X",
"9X9X9X9X9X9X9X9X9X9X9X9X9X9X9X9X9X9X9X9X9X9X9X9X9X>XD % o o # # + / < # 2 3 < < = + H 9X9X9X9X9X9X9X9X9X9X9X9X9X9X9X9X9X9X9X9X9X",
"9X9X9X9X9X9X9X9X9X9X9X9X9X9X9X9X9X9X9X9X9X9X9X9X9X9Xe.# # = = ; 4 #X5 % < < 3 < = o _.9X9X9X9X9X9X9X9X9X9X9X9X9X9X9X9X9X9X9X9X9X",
"9X9X9X9X9X9X9X9X9X9X9X9X9X9X9X9X9X9X9X9X9X9X9X9X9X9X9XOXG 2 5 K 0XqXq % , 3 < , @ o 0X9X9X9X9X9X9X9X9X9X9X9X9X9X9X9X9X9X9X9X9X9X",
"9X9X9X9X9X9X9X9X9X9X9X9X9X9X9X9X9X9X9X9X9X9X9X9X9X9X9X9X9X9X9X9X9X;X9 O # = : % O o ( 9X9X9X9X9X9X9X9X9X9X9X9X9X9X9X9X9X9X9X9X9X",
"9X9X9X9X9X9X9X9X9X9X9X9X9X9X9X9X9X9X9X9X9X9X9X9X9X9X9X9X9X9X9X9X9X0X, # # = = # O O , fX9X9X9X9X9X9X9X9X9X9X9X9X9X9X9X9X9X9X9X9X",
"9X9X9X9X9X9X9X9X9X9X9X9X9X9X9X9X9X9X9X9X9X9X9X9X9X9X9X9X9X9X9X9X9X-X< = = = = # 2 , & fX9X9X9X9X9X9X9X9X9X9X9X9X9X9X9X9X9X9X9X9X",
"9X9X9X9X9X9X9X9X9X9X9X9X9X9X9X9X9X9X9X9X9X9X9X9X9X9X9X9X9X9X9X9X9X`.3 3 5 < 3 8 9 < 5 9X9X9X9X9X9X9X9X9X9X9X9X9X9X9X9X9X9X9X9X9X",
"9X9X9X9X9X9X9X9X9X9X9X9X9X9X9X9X9X9X9X9X9X9X9X9X9X9X9X9X9X9X9X9X9Xe.8 3 5 5 8 q q 3 ! 9X9X9X9X9X9X9X9X9X9X9X9X9X9X9X9X9X9X9X9X9X",
"9X9X9X9X9X9X9X9X9X9X9X9X9X9X9X9X9X9X9X9X9X9X9X9X9X9X9X9X9X9X9X9X9XK 3 5 8 8 q w q 3 OX9X9X9X9X9X9X9X9X9X9X9X9X9X9X9X9X9X9X9X9X9X",
"9X9X9X9X9X9X9X9X9X9X9X9X9X9X9X9X9X9X9X9X9X9X9X9X9X9X9X9X9X9X9X9X9XH < 3 5 5 8 8 3 9 uX9X9X9X9X9X9X9X9X9X9X9X9X9X9X9X9X9X9X9X9X9X",
"9X9X9X9X9X9X9X9X9X9X9X9X9X9X9X9X9X9X9X9X9X9X9X9X9X9X9X9X9X9X9X9X9XeXK 3 5 5 8 5 h >X9X9X9X9X9X9X9X9X9X9X9X9X9X9X9X9X9X9X9X9X9X9X",
"9X9X9X9X9X9X9X9X9X9X9X9X9X9X9X9X9X9X9X9X9X9X9X9X9X9X9X9X9X9X9X9X9X9X9XeX@X|.#XwX9X9X9X9X9X9X9X9X9X9X9X9X9X9X9X9X9X9X9X9X9X9X9X9X",
"9X9X9X9X9X9X9X9X9X9X9X9X9X9X9X9X9X9X9X9X9X9X9X9X9X9X9X9X9X9X9X9X9X9X9X9X9X9X9X9X9X9X9X9X9X9X9X9X9X9X9X9X9X9X9X9X9X9X9X9X9X9X9X9X",
"9X9X9X9X9X9X9X9X9X9X9X9X9X9X9X9X9X9X9X9X9X9X9X9X9X9X9X9X9X9X9X9X9X9X9X9X9X9X9X9X9X9X9X9X9X9X9X9X9X9X9X9X9X9X9X9X9X9X9X9X9X9X9X9X"
};
