/* XPM */
static char * robber_heavy_xpm[] = {
"64 64 256 2",
"  	c None",
". 	c #110C0B",
"+ 	c #1C110C",
"@ 	c #191514",
"# 	c #161815",
"$ 	c #191A18",
"% 	c #1E1A19",
"& 	c #231A17",
"* 	c #321715",
"= 	c #211D1C",
"- 	c #2B1B14",
"; 	c #1D1F1C",
"> 	c #291E18",
", 	c #20221F",
"' 	c #252120",
") 	c #322220",
"! 	c #2A2625",
"~ 	c #272926",
"{ 	c #422316",
"] 	c #2D2928",
"^ 	c #342A26",
"/ 	c #532214",
"( 	c #4E2415",
"_ 	c #362B27",
": 	c #322E2D",
"< 	c #402B20",
"[ 	c #2E302E",
"} 	c #343633",
"| 	c #393534",
"1 	c #40342B",
"2 	c #562F16",
"3 	c #52321F",
"4 	c #602E1C",
"5 	c #373936",
"6 	c #3A3C3A",
"7 	c #403C3B",
"8 	c #4F392E",
"9 	c #543925",
"0 	c #6C3521",
"a 	c #743424",
"b 	c #414340",
"c 	c #6E3919",
"d 	c #474241",
"e 	c #544037",
"f 	c #4C4242",
"g 	c #67402F",
"h 	c #61422F",
"i 	c #604334",
"j 	c #6B422A",
"k 	c #4E4A49",
"l 	c #724224",
"m 	c #6E4424",
"n 	c #4A4C4A",
"o 	c #833F1E",
"p 	c #5A4C3D",
"q 	c #774623",
"r 	c #6E4C39",
"s 	c #535350",
"t 	c #7C4A27",
"u 	c #7B4B37",
"v 	c #764D34",
"w 	c #884924",
"x 	c #934728",
"y 	c #6B5240",
"z 	c #874E26",
"A 	c #835026",
"B 	c #83502C",
"C 	c #874F33",
"D 	c #5E5957",
"E 	c #585B58",
"F 	c #994C27",
"G 	c #815333",
"H 	c #8D532B",
"I 	c #7F563B",
"J 	c #8A562C",
"K 	c #985231",
"L 	c #975329",
"M 	c #755B4A",
"N 	c #915628",
"O 	c #A5502E",
"P 	c #65605F",
"Q 	c #60625F",
"R 	c #8D5935",
"S 	c #955A2C",
"T 	c #885F33",
"U 	c #955D33",
"V 	c #886046",
"W 	c #995D2F",
"X 	c #935E3A",
"Y 	c #B1553B",
"Z 	c #676966",
"` 	c #6C6867",
" .	c #8F613C",
"..	c #96602F",
"+.	c #756863",
"@.	c #A25F30",
"#.	c #A95B46",
"$.	c #996048",
"%.	c #886738",
"&.	c #856650",
"*.	c #946437",
"=.	c #9E6233",
"-.	c #9A6339",
";.	c #9B6433",
">.	c #99643E",
",.	c #A6603F",
"'.	c #AE5E3E",
").	c #846C38",
"!.	c #68763B",
"~.	c #6E706D",
"{.	c #746F6E",
"].	c #B65F3B",
"^.	c #70753A",
"/.	c #7D713D",
"(.	c #AA6533",
"_.	c #79743B",
":.	c #C35E3A",
"<.	c #9F6848",
"[.	c #A56839",
"}.	c #9A6C37",
"|.	c #986B50",
"1.	c #81743A",
"2.	c #637D3F",
"3.	c #A76934",
"4.	c #8E703E",
"5.	c #867064",
"6.	c #5D8040",
"7.	c #578240",
"8.	c #A36B3A",
"9.	c #518441",
"0.	c #A36C41",
"a.	c #9A6F3F",
"b.	c #BE6441",
"c.	c #9E6C5C",
"d.	c #B76748",
"e.	c #AA6C3D",
"f.	c #797775",
"g.	c #AB6D37",
"h.	c #AD6C44",
"i.	c #B46A46",
"j.	c #678345",
"k.	c #B76B40",
"l.	c #A9713F",
"m.	c #857873",
"n.	c #A6705E",
"o.	c #B0703B",
"p.	c #AF6F50",
"q.	c #598B48",
"r.	c #5F8A48",
"s.	c #768448",
"t.	c #AB7447",
"u.	c #A27560",
"v.	c #817D7B",
"w.	c #917A6C",
"x.	c #7D7F7C",
"y.	c #8E7F45",
"z.	c #688B4B",
"A.	c #9B7966",
"B.	c #B0763E",
"C.	c #C27047",
"D.	c #C96D55",
"E.	c #AC7657",
"F.	c #CA6E4A",
"G.	c #C96F44",
"H.	c #7E8649",
"I.	c #BD7253",
"J.	c #9F7D49",
"K.	c #B27846",
"L.	c #C17449",
"M.	c #A77C5C",
"N.	c #B27A53",
"O.	c #B47B4F",
"P.	c #A3805E",
"Q.	c #6A9351",
"R.	c #788F51",
"S.	c #8A8684",
"T.	c #C57853",
"U.	c #BF7A52",
"V.	c #868885",
"W.	c #CC784F",
"X.	c #B58253",
"Y.	c #B4845A",
"Z.	c #C57F57",
"`.	c #CC7E52",
" +	c #C78052",
".+	c #B4856C",
"++	c #928D8C",
"@+	c #8D8F8C",
"#+	c #C48459",
"$+	c #AD8A73",
"%+	c #A68F81",
"&+	c #C6886F",
"*+	c #CC8958",
"=+	c #B78F66",
"-+	c #9B9694",
";+	c #969895",
">+	c #C78D66",
",+	c #C39066",
"'+	c #CA8F5B",
")+	c #CA9062",
"!+	c #C69262",
"~+	c #C49582",
"{+	c #C9966B",
"]+	c #A39E9D",
"^+	c #B29B93",
"/+	c #9EA19E",
"(+	c #CD9868",
"_+	c #BD9D8A",
":+	c #C69D77",
"<+	c #CC9D6B",
"[+	c #CB9E71",
"}+	c #A5A7A4",
"|+	c #ACA7A6",
"1+	c #CBA474",
"2+	c #B0A9A2",
"3+	c #CDA38E",
"4+	c #BAABA0",
"5+	c #B3AEAC",
"6+	c #AEB0AD",
"7+	c #C3AC9D",
"8+	c #C3ACA3",
"9+	c #CCAC9D",
"0+	c #BBB6B5",
"a+	c #C4B5B0",
"b+	c #B7B9B6",
"c+	c #C8BAB5",
"d+	c #D7B7AA",
"e+	c #BDC0BC",
"f+	c #C4BFBD",
"g+	c #C6BFB8",
"h+	c #C5C2C6",
"i+	c #C1C4C0",
"j+	c #D2C0B5",
"k+	c #C8CBC7",
"l+	c #CFC9C5",
"m+	c #DDCCC1",
"n+	c #D7D0CC",
"o+	c #D0D2CF",
"p+	c #E6D3C2",
"q+	c #E0D9D2",
"r+	c #DCDAD8",
"s+	c #EBDCD7",
"t+	c #E9E1DA",
"u+	c #E7E2E1",
"v+	c #E2E4E1",
"w+	c #EFEAE9",
"x+	c #EAECE9",
"y+	c #F5EDE6",
"z+	c #F6EFE8",
"A+	c #F2F4F1",
"B+	c #F0F5F7",
"C+	c #F9F4F2",
"D+	c #F3F8FB",
"E+	c #FAFCF9",
"F+	c #FFFBFA",
"G+	c #FFFFFF",
"                                                                                                                                ",
"                                                                                                                                ",
"                                                                                                                                ",
"                                                                                                                                ",
"                                                                                                  . . . .                       ",
"                                                                                          . . . . . . . . . . .                 ",
"                                                                                      . . . . . . . . . . . . . .               ",
"                                                                                  . . . . . . . . . . . . . . . . .             ",
"                                                                                . . . . . . . . . . . . . . . . . .             ",
"                                                                                . . . + + * * * * + . . . . . . . .             ",
"                                                                                / c o F F c c o F F o / * . . . . .             ",
"                                                                                o F F F F o o o F F F c * * + . . .             ",
"                                                                                / o o F F c c o F F F o / o o / . .             ",
"                                                                              o F o o o F F F F F F F o o F F F / +             ",
"                                                                              o F o o o F F F F F F F F F F F o *               ",
"                                                                              o / / / / / F F F F F F F F F o / +               ",
"                                                                              c c o / / / o F F F F F o F o o / +               ",
"                                                                              / c / / / / / F F F F o o o o c                   ",
"                                                                                + * * * * / o o o o o c c                       ",
"                                                                                    / c o o o o o o                             ",
"                                                                                    * { / / c c /                               ",
"                                                                                  . . . . . . .                                 ",
"                                                                                              . . . . . .                       ",
"                                                                  . . . . . . . . . .                   . .                     ",
"                                                                              . . . . . . . . .                                 ",
"                                                                                        . . . . . . . . . .                     ",
"                                                            . . . . . .                         . . . . . . .                   ",
"                                                          . . . . . . . . . . . . .                         .                   ",
"                                                                        . . . . . . . . . . .   . . .                           ",
"                                                                                    . . . . . . . . . . . .                     ",
"                                              * {       . . . . . .                       .           . . .                     ",
"                                        o c o o o o c F o * . . . . . . . . .             . . .         . .                     ",
"                                          c o o o c / c F F / . . . . . . . . . . .         . . .         .                     ",
"                                        o o o o o c * + c F F o / * .         . . . .       . . . . .   .                       ",
"                                      F F F o o o o o F F F F F F F * .         . . .         . . . . . .                       ",
"                                        F F F F F F F F F F F F F F c .         . . . .       . . . . . .                       ",
"                                        F F F F F F F F F F F F o / { . .       . . . . . . . . . . .                           ",
"                                          F F F o F F F o o c / * . . . . . . . . . . . . . . . . .                             ",
"                                            / o c c / * + . . . . . . . . . . . . . . . . . . . . .                             ",
"                                        c o o o c / { * . . . . . . . . . . . . . . . . . . . . .                               ",
"                                c o o o o o o o o o c c / * . . . . . . . . . . . . . . . . . . .                               ",
"                          c o o o o o o o o o o o o o c c c / * . . . . . . . . . . . . . . . .                                 ",
"                  c o o o o o o o o o o o o o o o o o o o c c 2 * . . . . . . . . . . . . . . .                                 ",
"            c o o o o o o o o o o o o o o o o o o o o o o c c c / + . . . . . . . . . . . . . .                                 ",
"          c o o o o o o o o o o o o o o o o o o o o o o o c c c 2 * . . . . . . . . . . . . .                                   ",
"        c o o o o o o o o o o o o o o o o o o o c o o o o c c c 2 / + . . . . . . . . . . . .                                   ",
"      c o o o o o o o o o o o o o o o o o c c 2 ~ c o o o c c c c / *   . . . . . . . . . . . .                                 ",
"    c c o o o o o o o o o o o o o o o c 9 ~ ~ ~ ~ ~ 2 c o c c c c 2 /   . . . . . . . . . . . . . . .                           ",
"  / c c o o o o o o o o o o o o o o c < ~ ~ 2 2 < ~ ~ 2 c c c c c 2 /     . . . . . . . . . . . . . . . .                       ",
"  / c c c o o o o o o o o o o o o o 2 ~ ~ 9 c o o 2 ~ ~ c c c c c 2 /         . . . . . . . . . . . . . . .                     ",
"  c c c c o o o o o o o o o o o o c 9 ~ ~ < c o o o 2 2 c c c c c 2 /             . . . . . . . . . . . . .                     ",
"  2 c c c o c o o o o o o o o o o c 9 ~ ~ ~ ~ 2 c o o o o c c c c 2 /                   . . . . . . . . . .                     ",
"  * 2 c c c o o o o o o o o o o o o c < ~ ~ ~ ~ ~ 2 o o o o c c c 2 /                   . . . . . . . . .                       ",
"    / / 2 c c c o o o o o o o o o o o c 2 ~ ~ ~ ~ ~ c o o o c c c 2 /                   . . . . . . . .                         ",
"      / / 2 c c c c o o o o 2 ~ < 2 o o o c < ~ ~ ~ 2 o c c c c c 2 {                     . . . . .                             ",
"        * / 2 2 c c c c o c 2 ~ ~ 2 c o o o c ~ ~ ~ c c c c c c 2 /                         . . .                               ",
"            { / 2 c c c c c c < ~ ~ < c c c < ~ ~ 2 c c c c c c 2 *                                                             ",
"                { / 2 c c c c c 2 ~ ~ ~ ~ ~ ~ < c c c c c c c c /                                                               ",
"                    { / / c c c c < 2 2 2 2 c c c c c c c c c /                                                                 ",
"                          { / / c c c c c c c c c c c c c c                                                                     ",
"                                    / / c c c c c c c /                                                                         ",
"                                                                                                                                ",
"                                                                                                                                ",
"                                                                                                                                "};
